<?xml version="1.0" encoding="utf-8"?>
<!-- Generator: Adobe Illustrator 27.5.0, SVG Export Plug-In . SVG Version: 6.00 Build 0)  -->
<svg version="1.1" id="Livello_1" xmlns="http://www.w3.org/2000/svg" xmlns:xlink="http://www.w3.org/1999/xlink" x="0px" y="0px"
	 viewBox="0 0 87.6 88.8" style="enable-background:new 0 0 87.6 88.8;" xml:space="preserve">
<g>
	<path d="M87.4,77.1c-6.7-6.9-13.4-13.8-20.2-20.7l13-2.6c0.7-0.1,0.7-1.1,0.2-1.5c-15.2-9.9-31-19-47.1-27.3
		c-0.5-0.2-1.3,0-1.2,0.7c0,0.3,0.1,0.6,0.1,1c-0.1,0.1-0.1,0.3-0.1,0.5c1.4,9.9,3,19.8,4.8,29.6c0.4,2.3,0.8,4.5,1.3,6.8
		c0.4,2,0.4,5.8,1.5,7.5c1.1,1.8,3.2,1.5,5.2,1.3c0.3,0.1,0.6,0.1,0.8,0c0,0,0.1,0,0.1,0c0.5,0,0.8-0.4,0.8-0.8l3.7-3.5
		c0.3-0.3,0.8-0.9,1.4-1.6c4.1,1.7,7.5,5.7,10.6,8.8c3,3,5.8,6,8.6,9.2c2.3,2.6,5.1,6.7,7.2,2.5c0.1,0,0.2-0.1,0.3-0.2
		c2.8-3.1,5.8-6,9-8.6C87.7,77.9,87.7,77.3,87.4,77.1z M40.7,67.6c-0.7-1.8-0.8-4.1-1.2-6c-0.7-3.8-1.4-7.6-2.1-11.4
		c-0.7-4.1-1.4-8.2-2.1-12.3c3.7,10.7,6.7,21.7,9,32.8C42.5,70.5,41.6,70,40.7,67.6z M73,84.5c-1-1.1-1.9-2.2-2.9-3.3
		c-2.1-2.4-4.4-4.7-6.6-7c-3.2-3.2-6.5-6.9-10.6-8.9c0.7-0.7,1.4-1.3,1.8-1.4c2.3-0.3,6.1,4.8,7.7,6.4c5,5.1,9.7,10.4,14.3,15.9
		C75.5,88.4,73.7,85.3,73,84.5z M80.1,82.6c-0.7,0.7-1.5,2.2-2.6,1.9c-0.5-0.1-2.4-2.9-2.8-3.3c-1.9-2.2-3.8-4.3-5.7-6.4
		c-4.2-4.6-8.6-8.9-13.2-13.1c-0.3-0.3-0.8-0.3-1.1,0c-3,2.8-5.9,5.6-8.9,8.4c-2.4-11.5-5.5-22.8-9.4-33.8c0.5-0.1,1-0.6,0.6-1.2
		c-1.7-2.5-2.8-5.1-3.3-8.1c15.1,7.8,29.8,16.3,44,25.5c-4.2,0.8-8.3,1.7-12.5,2.5c-0.6,0.1-0.7,0.9-0.4,1.3
		c4.4,4.5,8.8,9.1,13.2,13.6c1.2,1.3,2.5,2.5,3.7,3.8c0.6,0.7,3.2,2.5,3.2,3.3C85.2,78.8,81.3,81.3,80.1,82.6z"/>
	<path d="M53.1,12c-0.5-1.6-1.3-2.9-2.6-4.1c-0.3-0.3-0.8-0.3-1.1,0c-2.8,2.7-5.2,5.6-7.4,8.8c-0.6,0.9,0.8,1.7,1.4,0.8
		c1.9-2.9,4.1-5.5,6.5-8c0.7,0.7,1.5,1.7,1.2,2.7c-0.2,0.8-1.9,2.1-2.5,2.7c-1.5,1.7-3,3.4-4.4,5.1c-0.7-0.5-1.2-1.1-1.6-1.8
		c-0.5-0.9-1.9-0.1-1.4,0.8c0.7,1.3,1.5,2.1,2.8,2.7c0.3,0.2,0.7,0.2,1-0.1c2.6-3.1,5.2-6.1,7.9-9C53,12.6,53.2,12.2,53.1,12z"/>
	<path d="M33.5,16.3c-1.6,0.1-5.1,1-6-0.7c-0.7-1.2-0.2-4.5-0.3-6c-0.1-1.7-0.6-3.7-0.3-5.4c0.3-1.8,2.1-2.1,3.8-2.5
		c0,4.5,0,8.9,0,13.4c0,1,1.6,1,1.6,0c0-4.8,0-9.6,0-14.4c0-0.5-0.5-0.9-1-0.8c-1.5,0.4-4.7,0.5-5.7,2.1c-1.2,1.8-0.1,6.1,0,8.1
		c0.1,1.9-0.6,5.9,0.9,7.4c1.5,1.5,5.2,0.4,7,0.3C34.5,17.8,34.6,16.2,33.5,16.3z"/>
	<path d="M19.8,22.5c-0.1-0.1-0.2-0.1-0.3-0.2c-6-1.7-12.1-2.8-18.3-3.5c-0.4-0.1-0.8,0.4-0.8,0.8c-0.1,1.7-1,2.8,0.1,4.2
		c1.5,2,6.4,2.8,8.6,3.4c2,0.5,5.6,1.6,7.7,1.1c2.1-0.6,3.2-3.2,4.4-4.9C21.7,22.5,20.4,21.7,19.8,22.5z M14.5,26.5
		c-2,0-4.3-0.7-6.2-1.2c-1.4-0.4-5-1.1-6-2.2c-0.8-0.9-0.6-1.7-0.4-2.6c5.7,0.7,11.4,1.8,17,3.3C17.8,25.3,16.7,26.5,14.5,26.5z"/>
	<path d="M23.2,36.9c-0.5,0-0.8,0.4-0.8,0.8c-2.7,4.3-4.9,8.9-6.7,13.7c-0.1,0.3,0.1,0.7,0.4,0.9c1.9,1,3.7,1.8,5.8,2.4
		c0.4,0.1,0.9-0.1,1-0.6c0.8-2.4,1.5-4.7,2.3-7.1c0.7-2.1,2-4.7,2.1-6.8C27.4,37.6,25.4,37,23.2,36.9z M23.8,45.9
		c-0.7,2.3-1.5,4.6-2.2,7c-1.3-0.3-3.5-0.8-3.8-1.5c-0.6-1.4,1.1-3.7,1.6-4.9c1.3-2.7,2.7-5.4,4.3-7.9C27,39.2,24.5,43.9,23.8,45.9z
		"/>
	<path d="M68.1,25.4c-0.4,0.1-0.7,0.1-1.1,0.2c0,0,0,0,0,0c0.4-2-1-3-2.8-3.1c-4.2-0.3-8.8,0.7-13,1c-1,0.1-1,1.5-0.2,1.6
		c-2.7,6.7,15.2,2.3,17.5,1.8C69.5,26.8,69.1,25.2,68.1,25.4z M52.5,25.5c0.1-0.2,0.1-0.3,0-0.5c2-0.2,3.9-0.3,5.9-0.5
		c0.7-0.1,7.4-1.1,7.1,0.6c-0.1,0.3,0,0.5,0.2,0.7c-1.9,0.3-3.8,0.6-5.7,0.9C59.4,26.8,51.4,28.1,52.5,25.5z"/>
</g>
</svg>
