<?xml version="1.0" encoding="utf-8"?>
<!-- Generator: Adobe Illustrator 27.5.0, SVG Export Plug-In . SVG Version: 6.00 Build 0)  -->
<svg version="1.1" id="Livello_1" xmlns="http://www.w3.org/2000/svg" xmlns:xlink="http://www.w3.org/1999/xlink" x="0px" y="0px"
	 viewBox="0 0 120 96" style="enable-background:new 0 0 120 96;" xml:space="preserve">
<g>
	<path d="M12.5,44.5C12.5,44.4,12.5,44.5,12.5,44.5C12.5,44.5,12.5,44.5,12.5,44.5c0.6-0.3,1.2-0.6,1.8-0.8c0,0-0.1-0.1-0.1-0.1
		c0-0.2-0.1-0.3-0.1-0.5c0,0,0,0,0,0c-0.3,0.1-0.6,0.2-0.8,0.3c-0.3,0.1-0.7,0.2-1,0.4c0,0.2,0.1,0.4,0.2,0.6
		C12.4,44.3,12.4,44.4,12.5,44.5z M115.9,31.1c3.2,3.5,4.7,8.4,3.8,13.1c0,0.1,0.1,0.2,0.1,0.3c0,2.2-0.4,4.4-1,6.6
		c-0.1,0.6-0.3,1.2-0.5,1.7c-0.2,0.5-0.3,1.1-0.5,1.6c-0.8,2.4-2.1,4.6-3.8,6.4c-2.4,2.2-5.4,3.2-8.4,4.4c-1.4,0.7-2.9,1.1-4.4,1.2
		c-1.6,0-3.4-0.6-4.9-0.5c-2.5,0.2-5,2.3-7.2,3.4c-1.6,0.8-3.3,1.5-4.9,2.4c-2.2,1.3-4.4,2.7-6.6,3.9c-1.1,0.6-1.9,1.7-3,2.3
		s-2.3,1.2-3.4,1.8c-2.4,1.4-2.8,3.7-4.5,5.7c-1.8,2.2-3.4,4.4-5.9,6c-2.1,1.3-4.2,2.4-6.4,3.4c-2.7,1.2-6,0.9-8.9,0.9
		c-2.6,0-5.2-0.3-7.7-1c-5-1.6-9.7-3.3-12.8-7.8c-1.4-2.2-2.4-4.6-2.9-7.1c-0.6-2.2,0.2-4.4,0-6.6c0-0.1,0-0.2,0.1-0.3
		c0-0.1,0-0.1,0-0.2c-0.8-5.5,0.2-12.3,5.2-15.6c3.7-2.5,7.6-4.5,11.5-6.7c3.5-2,7-4.5,10.7-6c1.4-0.6,2.7-1.4,3.9-2.3
		c-0.9-1.6-2.8-2.5-4.4-3.4c-0.8-0.5-1.1-1.4-1.8-2c-1.2-1.1-2.2-2.4-3.1-3.7c-1,1.6-2.1,3.1-3.1,4.7c-0.7,1.4-1.6,2.7-2.7,3.8
		c-2.7,2.4-5.6,4.5-8.8,6.2c-3.1,1.6-5.8,3.2-9.3,4.2c-3.1,0.6-6.3,0.4-9.2-0.6c-0.1,0-0.2-0.1-0.3-0.2c-0.7,0.3-1.4,0.6-2.1,0.8
		c-1.3,0.3-4.1,1-5.3-0.1c-0.7-1-0.6-2.4,0.3-3.2c0.5-0.4,0.9-1.1,1-1.8c-0.3,0.1-0.7,0.2-1,0.3c-1.1,0.3-2.6,0.7-3.3-0.5
		c-1.4-2.4,4.5-4.9,7.2-5.9c-0.1-0.1-0.3-0.2-0.4-0.3c-0.9-1,0.3-2.3,2.2-3.6c0.1-4.3,8.5-6.4,11.4-7.7c5-2.2,9.7-5.2,14.8-7.1
		c0,0,0,0,0-0.1c0.7-0.8,1.6-1.3,2.6-1.5c0.3-0.4,0.7-0.8,1-1.2c0.1-0.2,0.4-0.2,0.6-0.2c0.3-1.8,0.9-3.6,1.7-5.2
		C44,9,47.8,3.6,53,1.4c3.2-1.4,9-2.7,11.2,1.1c1.2-0.4,2.5-0.4,3.7,0c2.5,1,4.1,2.5,3.8,5.4c0,0.1-0.1,0.2-0.1,0.3
		c0.1,0.1,0.1,0.2,0.2,0.3c0.1,0.2,0.1,0.3,0,0.5c0.9,1.6-0.2,5.5-0.7,6.7c-0.9,2.1-2.4,3.9-4.2,5.3c1.4-0.4,2.7-0.9,4-1.6
		c1.1-0.7,2.2-1.4,3.4-1.9c0-1.2,0.3-1.3,1.4-2c0.6-0.5,1.2-0.9,1.9-1.3c-0.8-3,2.9-3.7,5.1-4.3c1.8-0.5,3.7-1.9,5.6-1.2
		c0.3,0.1,0.6,0.3,0.9,0.6c2.7-1.3,2.8,1.4,3.5,3.5c0.4,1.1,1,2,0.6,3.2c-0.3,0.8-1.4,1.2-2.2,1.5c-0.1,0.8-0.7,1.5-1.5,1.7
		c-1.4,0.5-2.8,0.9-4.2,1.3c-0.7,0.3-1.4,0.5-2.1,0.5c-0.7,0-1.3-0.2-1.8-0.7c-0.9,0.3-1.9,0.6-2.7,1.1c-0.1,0-0.1,0.1-0.2,0.1
		c-0.7,0.3-1.4,0.4-2.1,0.2c-0.4-0.1-0.7-0.4-0.7-0.8c-4.3,2.7-9.1,4.7-14.1,5.8c-4.7,0.9-9.4,2.2-13.9,3.9c0.6,0.6,1.2,1.1,1.9,1.7
		c2.6,2.3,5.5,4.7,7.2,7.8c1.5-0.6,2.9-1.4,4.2-2.3c1.6-1.1,3.2-1.5,4.9-2.4c2.2-1.2,4.3-2.4,6.5-3.6c7.4-4,15-9.3,23.7-9.3
		C103,22.6,111.1,25.5,115.9,31.1z M117.5,47.2c1.4-3.3,2-6.1,0.7-9.5c-1.2-3-2.6-5.9-5.2-7.9c-3.8-3-8.3-4.9-13.1-5.7
		c-5.5-0.9-10.3,0.4-15.2,2.5c-4.5,2-8.7,4.6-13,6.9c-3.7,2-7.5,3.7-11,5.9c-2.3,1.4-4.7,2.3-6.9,4.1c-0.9,0.8-2,1.4-3.1,1.8
		c-4.2,1.7-8.2,4.5-12.2,6.8c-2.2,1.2-4.4,2.4-6.5,3.7c-1.7,1.1-3.9,2.1-5.3,3.6c-2.6,3-3.9,6.9-3.6,10.8c0.3,5,2.1,8.1,5.8,11.3
		c1.7,1.5,3.6,2.8,5.6,3.9c1.6,0.9,3.3,1,5,1.7c7.8,2.9,17.7-0.6,24.2-5.1c2.1-1.4,3.6-3.6,4.2-6.1c0.1-0.8-0.3-2.6,0.4-3.3
		c0.9-0.9,2.9-1.3,4-1.8c2.1-1,4.2-2.2,6.2-3.4c4.2-2.7,8.6-5.2,13.1-7.4c1.1-0.5,2.4-1.5,3.6-1.6c1.8-0.2,3.7,0.1,5.5,0
		C107.9,58.3,114.5,53.9,117.5,47.2L117.5,47.2z M106.9,61.6c5.4-2.1,10.4-6.5,11-12.5c-3.5,6.4-10.1,10.4-17.3,10.6
		c-2,0.1-4.8-0.5-6.6,0.5c-1.6,0.8-3.2,1.5-4.8,2.3c-3.8,2-7.4,4.4-11.2,6.6c-2,1.2-4,2.2-6.1,3.2c-1.4,0.8-2.8,1.2-2.8,3.1
		c-0.2,1.9-1.1,3.8-2.3,5.3c-3.3,4.3-10.3,7.2-15.6,8.1c-5,0.8-11.3,0.8-16-1.5c-4.7-2.3-9.7-5.7-12-10.5c-0.1,1-0.1,1.9,0,2.9
		c0.1,0.1,0.2,0.1,0.2,0.2c1.9,4,6.4,7.3,10.3,9.3c4.4,2,9.3,3,14.2,2.9c4.7-0.2,9.2-1.7,13-4.3c1.8-1.4,3.5-3,4.8-4.9
		c1.6-1.9,3.2-3.2,3.7-5.7c0.3-1.4,2.3-1.8,3.3-2.3c2.7-1.4,5.4-2.9,8.1-4.4c4.4-2.4,9.4-4.5,13.4-7.6c0.4-0.2,0.8-0.2,1.2-0.1
		c1.3,0.4,2.7,0.5,4.1,0.4C102,62.9,104.5,62.4,106.9,61.6z M111.1,61.4c1.1-0.7,2-1.6,2.8-2.6c-4.6,3.7-11.4,5.4-17.2,5.6
		c-1.4,0.1-1.3-0.6-2.9,0.3c-1.1,0.7-2.3,1.2-3.5,1.8c-2.9,1.6-5.8,3.2-8.8,4.8c-2.9,1.6-5.8,3.4-8.8,4.7c-1.1,0.5-2,1.5-2.3,2.7
		c0.9-0.5,2-0.9,2.8-1.4c1.1-0.7,2-1.8,3.1-2.4c0.9-0.5,1.9-1,2.8-1.6c4.6-2.8,9.2-5.4,14.1-7.7c2.6-1.3,4.1-0.5,6.8-0.5
		C103.5,65.2,108.1,63.3,111.1,61.4L111.1,61.4z M90.9,16.2c0.5-0.3,1.1-0.6,1-0.9c-0.1-0.6-0.3-1.2-0.6-1.7
		c-0.2-0.5-0.3-1.1-0.4-1.7c-0.2-0.8-0.2-2-1.4-1.5c0.2,0.6,0.3,1.3,0.5,1.9C90.5,13.6,90.8,14.9,90.9,16.2z M88.2,18.4
		c1.5-0.5,1.6-0.6,1.3-2.1c-0.1-1-0.3-1.9-0.5-2.9c-0.1-0.5-0.2-1.4-0.5-2.1c-0.9,0.5-2.1,0.6-3.1,1c-1.1,0.5-2.4,0.7-3.6,1.2
		c0,0,0,0.1,0,0.1c0.6,1.9,1,3.8,1.7,5.7c0,0.1,0,0.3,0,0.4C85.1,19.5,86.7,19.1,88.2,18.4z M87.9,10.2c-0.5-0.4-1.2-0.5-1.8-0.2
		c-1.1,0.4-2.2,0.8-3.3,1.1c-1,0.2-2,0.5-3,0.8c0.4,0.1,0.9,0.2,1.2,0.4c1.1-0.4,2.2-0.8,3.3-1.1c0.7-0.2,1.3-0.6,2-0.8
		C86.9,10.5,87.4,10.4,87.9,10.2L87.9,10.2z M81.7,18.8c0.1,0.3,0.3,0.5,0.6,0.6c-0.4-1.2-0.6-2.4-1.1-3.6c-0.2-0.6-0.4-1.3-0.6-2
		c-0.2-0.1-0.3-0.3-0.4-0.5c-0.5-0.1-0.9-0.2-1.4-0.3c0,0-0.1,0-0.1-0.1c-0.2,0.4-0.2,0.8,0,1.2c0,0,0,0.1,0,0.1
		c0.7,0.5,1.3,1.1,1.7,1.9c0.5,0.8,0.9,1.7,1.2,2.6C81.7,18.7,81.7,18.8,81.7,18.8L81.7,18.8z M78.8,20c0.6-0.2,1.2-0.4,1.8-0.5
		c-0.3-1-1.8-4.4-2.3-4.1c-0.4,0.2-0.7,0.4-1,0.6C78.3,16.6,78.6,18.5,78.8,20L78.8,20z M76.7,20.2c0.1,0.1,0.4,0.1,0.8,0
		c-0.1-1.2-0.3-3.3-1.2-3.3c-0.2,0-0.3-0.1-0.5-0.2c-0.1,0-0.1,0.1-0.2,0.1c-0.2,0.1-0.4,0.3-0.4,0.5c0.1,0,0.1,0,0.2,0
		c0.7,0.2,1,1,1.1,1.8c0.3,0.2,0.4,0.6,0.2,0.9C76.8,20.2,76.8,20.2,76.7,20.2L76.7,20.2z M75.4,19.6c0-0.1,0-0.2-0.1-0.3
		c-0.3-0.9-4.9,1.7-5.7,2c-1.8,0.6-3.6,1.4-5.4,1.8c-0.2,0-0.3,0-0.4-0.1c-2.7,1.1-5.5,1.9-8.3,2.3c-3.3,0.8-6.5,1.9-9.6,3.4
		c0,0,0,0.1,0,0.1c0,0.1,0,0.2,0,0.3c0.2,0.2,0.4,0.5,0.6,0.7c4.7-1.9,9.6-2.9,14.5-4.2C66.1,24.3,71,22.3,75.4,19.6L75.4,19.6z
		 M68.2,18c1.6-1.9,4.2-7.6,1.1-9.4c-0.8-0.4-1.8-0.5-2.7-0.4c1.5,1.8,1.5,4.1,1.4,6.6c-0.1,2.4-3.3,4.2-5.1,5.2
		c-1.3,0.6-2.7,1.2-4.1,1.7c-1.9,1-3.9,1.7-6,2.3c-2.6,0.5-5.2,1.3-7.7,2.4c0.1,0.3,0.3,0.7,0.4,1c2.1-0.9,4.1-1.6,6.2-2.4
		c2.6-1,5.4-1.3,8.1-2.1C63,22.2,66,20.4,68.2,18L68.2,18z M69.8,7.5C69.4,6.7,68.8,6,68,6c-1.6-0.1-3.1,0-4.7,0.4
		C61.2,7,59,7.9,57,9.1c-0.3,0.3-0.6,0.6-0.9,1c-3.9,4.1-8.5,7.7-11.8,12.2c-0.1,0.1-0.2,0.2-0.4,0.3c0,0.3,0,0.6,0,0.9
		c2-1.8,4.1-3.5,6.3-5.1c2.6-2.1,4.4-5,6.9-7.3C60,8.3,65.9,5.7,69.8,7.5L69.8,7.5z M70.4,6.4c-0.5-4.5-6.8-2.5-9.1-1.1
		c-0.5,0.3-1,0.6-1.5,1c1.7-0.6,3.4-1.1,4.7-1.5C67.4,3.9,69.1,4.7,70.4,6.4L70.4,6.4z M66,15.9c1.5-2.1,0.9-5.8-0.9-7.5
		c-1.7,0.4-3.4,1-4.9,1.9c-2.6,1.7-4.3,4-6.4,6.1c-2.1,2.1-4.5,3.9-6.8,5.8c0.4-0.2,0.7-0.3,1.1-0.5c1.5-0.7,3-1.4,4.5-2.2
		c1.2-2.2,2.7-4.2,4.4-6c1.6-1.5,3.1-2.1,5.1-3c3.4-1.7,4.7,1.8,3.2,4.4c0,0.1-0.1,0.2-0.2,0.2c-0.1,0.4-0.2,0.7-0.4,1
		c-1.3,1.5-2.8,2.7-4.5,3.7C62.3,19,64.5,17.9,66,15.9L66,15.9z M63.7,12.2c0,0,0.1,0,0.1,0c-0.5-0.5-1.3-0.6-1.9-0.2l-0.7,0.3
		c-1.1,0.4-2.1,1-3,1.7c-1.3,1.3-2.5,2.8-3.5,4.4c2.3-1.1,4.4-2.6,6.2-4.2C61.7,13.3,62.6,12.6,63.7,12.2L63.7,12.2z M63.2,15.9
		c0-0.7,0-1.4,0-2.1c-0.5,0.4-1,0.8-1.4,1.2c-0.5,0.5-1.1,1-1.7,1.3c-2.5,1.8-5,3.4-7.7,4.8c-2.3,1.1-6.1,2-7.8,4
		c2-0.8,3.9-1.5,6.1-2.2c1.1-0.3,2.2-0.6,3.3-0.9c2.4-1.8,5-3.4,7.6-5C62.2,16.8,62.8,16.4,63.2,15.9L63.2,15.9z M59.4,91.1
		c1.9-1.3,3.6-2.9,5-4.8c-1.5,1.8-3.4,3.3-5.6,4.1c-2.3,0.8-4.5,1.8-6.8,2.5c-2.2,0.4-4.4,0.5-6.5,0.3c-4.8-0.3-9.6-1.1-13.7-3.7
		c-2.8-1.6-5.3-3.6-7.4-6c0.8,1.9,1.9,3.6,3.4,5.1c2.2,2,4.8,3.5,7.7,4.4c2.3,0.7,5,1.7,7.4,1.7c3.3,0,7.1,0.8,10.2-0.4
		C55.3,93.4,57.4,92.3,59.4,91.1z M61.4,3.7c0.5-0.3,1-0.6,1.5-0.8c-1.6-2.4-5.6-1.8-7.9-1c-2.6,0.9-4.9,2.5-6.7,4.5
		c-3.6,3.9-7.3,8.9-7.3,14.4c0.2,0.1,0.4,0.2,0.5,0.4c0.4,0.4,0.8,0.8,1.1,1.3c0.2-2.6,1.1-5.1,2.5-7.3C47.7,11,55.4-3.1,61.4,3.7
		L61.4,3.7z M59.2,5c0.4-0.2,0.7-0.4,1.1-0.6c-0.6-0.7-1.5-1.1-2.5-1.1c-1.4,0.9-2.6,2.2-3.5,3.6c0.9-0.4,1.8-0.6,2.8-0.6
		c0.1,0,0.1,0,0.2,0C57.9,5.9,58.5,5.4,59.2,5L59.2,5z M54.4,41.5c0.3-0.2,0.7-0.5,1.1-0.7c-2.6-4.7-7.7-7.1-10.8-11.4
		c-1.1-1.5-1.8-3.3-2-5.2c-0.2-0.3-0.4-0.6-0.7-0.8c-0.3-0.3-0.6-0.7-1-1.1c0,2.2,0.5,4.3,1.5,6.2c0,0,0,0,0,0
		c0.2,0.3,0.4,0.7,0.7,1c1.3,1.8,2.3,3.9,3.9,5.4c1.4,1.5,3,2.8,4.6,4C52.8,39.7,53.7,40.5,54.4,41.5L54.4,41.5z M56.1,7.7
		c-0.9,0.2-1.8,0.5-2.6,1c-0.1,0-0.1,0-0.2,0c-0.6,1-1.1,1.9-1.6,2.7c-0.6,1-1.1,2-1.6,3c0.6-0.6,1.2-1.2,1.8-1.8
		C53.3,11.3,54.6,9.4,56.1,7.7z M52.3,8.3c0.7-1.1,1.6-2.5,2.5-3.7c-1.4,1.1-2.7,2.4-3.8,3.8c-1,1.2-1.9,2.5-2.7,3.9
		c-1.3,2.1-3.1,4.5-3.7,6.9c-0.1,0.4-0.2,0.8-0.3,1.2c0.7-0.9,1.5-1.7,2.3-2.5c0-0.1,0.1-0.2,0.1-0.3C48.9,14.8,50.3,11.2,52.3,8.3
		L52.3,8.3z M43.3,31.9c-0.2-0.4-0.5-0.7-0.7-1.1c-0.2,1.9-1,3.6-2.3,5c-2.4,2.4-4.6,5.3-7.7,6.8c-5.4,2.7-10.9,7.4-17.3,6.1
		c0,0,0,0,0,0c-1,0.5-2,1.1-3.1,1.7c6.1,1.6,11.9-0.8,17.2-3.9c3.2-1.9,6.7-4,9-7C40.2,37,41.8,34.5,43.3,31.9z M40.3,27.2
		c-0.3-0.8-0.5-1.6-0.6-2.4c-2,2-4.2,3.8-6.6,5.4c-1.6,1-3.2,2.2-4.8,3.2c-1.8,0.9-3.7,1.8-5.7,2.5c-3.2,1.4-6.5,3.1-9.8,4.3
		c2.8-0.8,5.6-1.9,8-2.8C24.9,35.7,29,34,32.9,32C35.5,30.6,37.7,28.4,40.3,27.2z M39.5,23.2c0-0.5,0-1.1,0-1.6c0,0,0,0-0.1,0
		c-0.2,0-0.4,0-0.7,0.1c-3.4,3.7-7.2,7-11.9,8.9c-5.7,2.3-11.3,3.9-16.5,7.1c-1.2,0.8-2.9,2.6,0.1,1.8c1-0.2,1.9-0.6,2.7-1
		c1.2-0.5,2.4-1.1,3.6-1.5c2.8-1,5.6-2.4,8.4-3.5C30.4,31.3,35.4,27.2,39.5,23.2L39.5,23.2z M41,29.1c-1.3,1.4-3,2.6-4.8,3.3
		c-2.2,1.1-4.3,2.4-6.5,3.5l-4,2.1c-1,0.8-2.1,1.6-3.2,2.3c-1.7,1.3-3.5,2.4-5.5,3.4c-3.9,1.6-7.7,4-11.8,5.3c-0.1,0-0.1,0-0.2,0
		c0,0,0,0,0,0c-0.6,1.5-0.4,2.1,0.6,1.9c0.3,0,0.7,0,1,0c1.3-0.2,2.6-0.6,3.8-1.3c3.5-1.7,6.9-3.6,10.3-5.3
		c3.5-1.8,7.1-3.8,10.5-5.8C34.4,36.7,40.2,33.2,41,29.1z M40.7,32.6c-2.2,3.1-6.1,5.6-8.9,7c-4.9,2.6-9.7,5.4-14.6,8
		c5.1,0.2,9.8-3.6,14.1-5.8C34.7,40.1,39,36.6,40.7,32.6z M36.2,31.1c1.2-0.6,2.3-1.3,3.2-2.2C38.3,29.6,37.3,30.3,36.2,31.1z
		 M35,23.4c-4,1.6-7.7,3.8-11.6,5.6c-2.1,1-4.2,1.9-6.4,2.8c-1.3,0.7-2.6,1.6-3.7,2.6c2-1,4.1-1.9,6.2-2.6
		C25.3,30.3,30.6,27.4,35,23.4z M24.3,37.3c-0.1,0-0.2,0.1-0.3,0.1c-3.9,1.3-7.7,2.7-11.7,3.7c-2.3,0.4-4.5,1-6.7,1.8
		c-0.3,0.2-0.7,0.3-1,0.5c-0.4,0.2-0.8,0.4-1.2,0.7c-0.2,0.1-0.3,0.3-0.5,0.4l-0.4,1.6c2.1-0.7,4.1-1.6,6.1-2.5
		c1.8-0.7,3.7-1.4,5.6-1.9c0,0,0,0,0.1,0c1.9-0.5,3.8-1.2,5.5-2.1C21.2,38.8,22.8,38.1,24.3,37.3z M15.7,42.9
		c0.7-0.4,1.5-0.8,2.2-1.2c-0.9,0.3-1.8,0.6-2.7,0.9c0,0.1,0.1,0.3,0.1,0.5C15.4,43,15.6,42.9,15.7,42.9z M12.5,44.5L12.5,44.5
		L12.5,44.5C12.5,44.5,12.5,44.5,12.5,44.5z M11.4,45c-0.2-0.3-0.3-0.6-0.4-0.9c-0.8,0.3-1.5,0.7-2.3,1c0.1,0.2,0.2,0.3,0.3,0.4
		c0.1,0.2,0.2,0.3,0.3,0.5C9.9,45.7,10.7,45.4,11.4,45z M8.1,46.5c-0.1-0.3-0.3-0.5-0.5-0.8c0,0,0-0.1-0.1-0.1C7,45.8,6.5,46,6,46.2
		c0,0.1,0,0.3-0.1,0.4c-0.2,0.3-0.3,0.6-0.3,0.9C6.5,47.2,7.3,46.9,8.1,46.5L8.1,46.5z"/>
	<path d="M115.2,34.4c0.8,2.5,2.2,5.5,2.2,8.2c-0.1,4.3-2.2,8.4-5.6,11c-5.3,3.9-10.9,3.8-17.2,3c-4.1-0.5-9.9-2.2-12.7-5.6
		c-1.7-2-4.1-3.2-4.7-6c-0.5-2.4-0.7-4.9-0.4-7.3c0.5-4.1,3.3-8.4,7.1-9.9c8.4-3,18.9-5.4,26.5,1.2
		C111.9,30.4,114.6,32.3,115.2,34.4z M116.1,44.1c0.4-2.3-0.7-5.7-1.5-7.9c-1.6-4.1-6-7.6-10.1-8.9C97.6,25,90.9,26.6,84.2,29
		c-4.9,1.9-6.7,8.2-6.3,13c0.4,4.6,4.4,8.6,8.4,10.7c4.2,2.3,9.6,3,14.4,3.2c4.6,0.1,10.6-1.8,13.1-6
		C114.9,48.1,115.6,46.2,116.1,44.1z"/>
	<path d="M108.6,32.7c5.2,2.3,0.7,7.7-0.3,11.2c-1.2,4-3.3,9-8.6,7.4c-1.7-0.5-4.2-1.2-4.8-3.2c-0.5-1.7,0.8-3.6,1.4-5.1
		c0.9-2.2,1.8-4.3,2.7-6.5c0.7-1.7,1.2-3.3,2.8-4.3c0.1,0,0.2-0.1,0.2-0.1c0,0,0,0,0.1-0.1c1.3-1.3,3.9-1,5.3-0.1
		c0.3,0.2,0.5,0.4,0.8,0.6C108.3,32.6,108.4,32.7,108.6,32.7z M107.2,43c0.6-2.4,3.9-6.1,2.1-8.3c0.2,1.1,0.3,2.6-0.6,3.3
		c-1.2,1-2.8,1.3-4.3,1c-1-0.2-2.9-0.8-3.3-1.9c-0.2-0.7-0.3-1.4-0.2-2.1c-1.2,2-1.9,4.9-2.7,6.7c-0.8,1.9-3.8,6.1-0.7,7.5
		c3.1,1.3,6.3,1.6,8.2-1.7C106.4,46.1,106.9,44.6,107.2,43z M108,36.6C108,36.7,107.9,36.7,108,36.6c-1.7,1-3.7,1-5.3,0.1
		c-0.2-0.1-0.3-0.2-0.5-0.3c0,0.2,0.2,0.5,0.3,0.6c0.7,0.5,1.5,0.8,2.3,0.9c1,0.1,2-0.1,2.8-0.7C107.8,37,107.9,36.8,108,36.6z
		 M107.2,35.7c1.4-1.2,0-2.6-1.4-3c-0.8-0.2-3.4-0.3-3.3,1.2c-0.1,1.1,0.7,2,1.8,2.1c0,0,0.1,0,0.1,0
		C105.4,36.2,106.4,36.1,107.2,35.7L107.2,35.7z"/>
	<path d="M105.5,44.5c0.2,1.1,0.4,2.7-0.6,3.4c-1.2,1-2.8,1.3-4.3,1c-1-0.2-2.9-0.8-3.3-1.9c-0.3-1.1-0.3-2.3,0.2-3.3
		c0.1-0.6,0.4-1.2,0.8-1.6c1.3-1.3,3.9-1,5.3-0.1c0.8,0.5,1.4,1.3,1.6,2.3C105.4,44.3,105.5,44.4,105.5,44.5z M104.3,46.6
		C104.2,46.6,104.2,46.6,104.3,46.6c-1.7,1-3.7,1-5.3,0.1c-0.2-0.1-0.3-0.2-0.5-0.3c0,0.2,0.2,0.5,0.3,0.6c0.7,0.5,1.5,0.8,2.3,0.9
		c1,0.1,2-0.1,2.8-0.7C104.1,47,104.2,46.8,104.3,46.6z M103.5,45.6c1.4-1.2,0-2.6-1.4-3c-0.8-0.2-3.4-0.3-3.3,1.2
		c-0.1,1.1,0.7,2,1.8,2.1c0,0,0.1,0,0.1,0C101.6,46.2,102.6,46.1,103.5,45.6z"/>
	<path d="M94.7,31.4c5.8,2,2.2,8.4,0.6,12.4c-1.5,3.8-2.8,7.1-7.5,6.4c-2-0.3-4.1-1-5.2-3c-1.3-2.2,1-5.6,1.8-7.5
		c0.9-2.1,1.5-6.2,3.5-7.7C89.8,30.7,92.5,30.8,94.7,31.4z M96.1,34.6c0.2,1.1,0.4,2.7-0.6,3.4c-1.2,1-2.8,1.3-4.3,1
		c-1-0.2-2.9-0.8-3.3-1.9c-0.3-1.1-0.3-2.3,0.2-3.3c0,0,0,0,0-0.1c-0.3,0.3-0.5,0.6-0.6,1c-0.9,2.1-1.6,4.3-2.4,6.4
		c-0.8,1.9-2.7,4.4-0.7,6.3c1.3,1.1,2.9,1.7,4.6,1.6c2.9,0.1,4.5-3,5.1-5.6c0.6-2.7,4-7.9,1.5-10.2c0.2,0.3,0.3,0.7,0.4,1
		C96.1,34.4,96.1,34.5,96.1,34.6z M94.9,36.6C94.9,36.7,94.9,36.7,94.9,36.6c-1.7,1-3.7,1-5.3,0.1c-0.2-0.1-0.3-0.2-0.5-0.3
		c0,0.2,0.2,0.5,0.3,0.6c0.7,0.5,1.5,0.8,2.3,0.9c1,0.1,2-0.1,2.8-0.7C94.8,37,94.9,36.8,94.9,36.6z M94.2,35.7c1.4-1.2,0-2.6-1.4-3
		c-0.8-0.2-3.4-0.3-3.3,1.2c-0.1,1.1,0.7,2,1.8,2.1c0,0,0.1,0,0.1,0C92.3,36.2,93.3,36.1,94.2,35.7z"/>
	<path d="M92.4,43.9c0.2,1.1,0.4,2.7-0.6,3.4c-1.2,1-2.8,1.3-4.3,1c-1-0.2-2.9-0.8-3.3-1.9c-0.3-1.1-0.3-2.3,0.2-3.3
		c0.1-0.6,0.4-1.2,0.8-1.6c1.3-1.3,3.9-1,5.3-0.1c0.8,0.5,1.4,1.3,1.6,2.3C92.3,43.7,92.4,43.8,92.4,43.9z M91.2,46
		C91.2,46,91.2,46,91.2,46c-1.7,1-3.7,1-5.3,0.1c-0.2-0.1-0.3-0.2-0.5-0.3c0,0.2,0.2,0.5,0.3,0.6c0.7,0.5,1.5,0.8,2.3,0.9
		c1,0.1,2-0.1,2.8-0.7C91,46.4,91.2,46.2,91.2,46z M90.4,45c1.4-1.2,0-2.6-1.4-3c-0.8-0.2-3.4-0.3-3.3,1.2c-0.1,1.1,0.7,2,1.8,2.1
		c0,0,0.1,0,0.1,0C88.6,45.6,89.6,45.4,90.4,45z"/>
	<path d="M86.4,15.7c1.2,0,1.2,1.2,0,1.2C85.8,17,85.8,15.7,86.4,15.7z"/>
	<path d="M86.3,12.8c0.3,0,0.6,0.3,0.6,0.6c0,0.3-0.2,0.5-0.4,0.6c-0.6,0.4-1.4-0.4-0.8-0.9C85.8,12.9,86,12.8,86.3,12.8z"/>
	<path d="M76.4,50.9c2.2,0.7,1.6,2.8,1.2,4.5c-0.4,1.8-0.7,3.4-2.5,3.7c-0.1,0.1-0.4,0.2-0.6,0.2c-2.2-0.3-1.9-3.2-1.5-4.8
		C73.3,53.1,74.4,50.3,76.4,50.9z M76.4,55.1c0.2-0.7,0.9-3-0.5-3c-1,0-1.9,2.4-2,4.2c0.7-0.2,1.5-0.1,2.2,0.2
		C76.3,56,76.3,55.6,76.4,55.1z M75.6,57.6c-0.3-0.2-0.6-0.2-0.9-0.2c-0.2,0-0.4,0-0.6,0.1c0.1,0.2,0.2,0.4,0.3,0.5
		C74.9,58,75.3,57.9,75.6,57.6z"/>
	<path d="M68.6,40.6c3.4,2.7-3.8,5.9-5.5,6.7c-2.9,1.2-5.5,3.2-8.3,4.6c-1.3,0.7-3.8,1.7-5,0.2c-3.4-4.1,3.7-5.8,6-7.2
		c3.6-2.1,8.4-7.1,12.6-4.4C68.5,40.5,68.5,40.5,68.6,40.6C68.6,40.5,68.6,40.5,68.6,40.6z M61.1,46.8c0.5-0.3,8.3-3.7,6.7-5.3
		c-2.9-1.8-7.5,1.9-10,3.6c-1.3,0.9-2.8,1.7-4.2,2.5c-0.9,0.5-1.9,0.5-2.7,1.2c-0.7,0.6-0.8,1.6-0.2,2.3c0.1,0.2,0.3,0.3,0.5,0.4
		c1.2,0.5,2.8-0.5,3.8-1.2c0.3-0.2,0.5-0.4,0.8-0.5c0.7-0.4,1.4-0.9,2-1.3C59,47.9,60,47.4,61.1,46.8z"/>
	<path d="M67,56c2.6,0.3,1.3,3.6,0.9,5.1c-0.4,1.3-1.2,4.4-3.1,3.7c0,0,0,0,0,0c-2.4-0.3-2.4-2.5-1.6-4.7C63.8,58.4,64.9,55.7,67,56
		z M67.4,58.5c0-0.8-0.9-1.5-1.5-0.8c-0.8,1.1-1.4,2.3-1.8,3.7c0.4-0.1,0.8-0.1,1.2,0c0.4,0.1,0.8,0.4,1.2,0.6
		c0.2-0.7,0.4-1.5,0.5-1.7C67.2,59.8,67.3,59.2,67.4,58.5z M65.8,63.2c0,0-0.1,0-0.1-0.1c-0.3-0.3-0.7-0.5-1.1-0.5
		c-0.2,0-0.4,0.1-0.5,0.1c0.2,0.6,0.7,0.9,1.3,0.9c0,0,0.1,0,0.1,0C65.6,63.5,65.7,63.4,65.8,63.2z"/>
	<path d="M58.5,65.9c1.3,2.7,0.1,5.4-0.9,8c-1.3,2.8-3.7,4.9-6.6,5.8c-6.6,1.9-15.4-0.7-18.1-7.4c-0.5-1.7-0.7-3.5-0.6-5.2
		c0.1-1.6,0.9-2.4,1.6-3.8c1.5-2.8,5-4.5,8-5.1C48.8,56.7,55.5,59.5,58.5,65.9z M56.9,72c1.1-2.2,1-4.8-0.2-7
		c-2.1-4.7-9.7-7.2-14.5-5.6c-5.9,2-10.1,6-8.2,12.6c2.5,6.3,9.9,7.4,15.8,6.6C53.6,78.2,55.7,75.1,56.9,72z"/>
	<path d="M51.3,61.8c1.3,0.8,5,3.9,3.9,5.7c-0.3,0.6-3.2,2.2-2.7,2.9c0.5,0.7,2.2,1.8,1.9,2.9C54,75.2,50.6,77,48.8,77
		c-1,0-1.9-0.5-2.4-1.3c-1.8-2.2-3.7-0.1-5.7,0.3c-1.8,0.3-4.9-3.2-5.2-4.7c-0.4-2.4,4.2-2,4.5-4.2c-0.9-0.9-1.7-1.9-2.4-2.9
		c-0.1-0.2-0.1-0.4,0-0.6c0.8-1.3,4.6-3.7,6.2-2.8c0.4,0.3,0.7,0.7,0.9,1.1c1.2,2,2.7,1.4,4.2,0.5C49.4,62.1,50.6,61.4,51.3,61.8z
		 M54,67.1c0.4-0.5-1.7-2.7-2-3.1c-0.5-0.8-1.5-1.1-2.4-0.7c-0.1,0-0.1,0.1-0.2,0.1c-0.7,0.5-1.5,0.8-2.3,1
		c-1.8,0.1-2.6-0.4-3.6-1.9c-0.8-1.2-3.2,0.4-4,0.9c-0.8,0.5,1.3,2.7,1.5,3c0.1,0.1,0.2,0.3,0.2,0.5c-0.1,1.6-1.5,2.5-2.9,3.2
		c-0.1,0-0.2,0.1-0.2,0.1c1.4,1.2,2.4,2.2,4.4,1.5c1-0.4,2.2-0.5,3.2-0.2c0.8,0.2,1.5,1,2.1,1.5c1,0.9,3.2-0.5,4.2-1
		c-0.5-0.4-0.8-0.9-1-1.5C50.6,68.4,53,68.4,54,67.1z M49.3,75.6c0.5-0.2,3.7-1.2,3.6-2.5c-1.1,0.5-2.5,1.6-3.7,1.7
		c-1.6,0.2-2-1.3-3.3-2c-2-1-4,1.4-5.8,0.7c-1.3-0.5-1.7-1.5-2.6-2.3c-0.2,0.8,0.6,1.7,1.4,2.4c2.4,2,3.5-0.2,5.5-0.6
		C46.6,72.4,47.2,76.4,49.3,75.6L49.3,75.6z"/>
	<path d="M51.6,65.1c0.3,0.5,0,0.9-0.3,1.4c-0.2,0.4-0.4,0.8-0.7,1.2c-0.2,0.3-0.6,0.4-0.9,0.2c-0.3-0.2-0.4-0.5-0.2-0.8
		c0.2-0.3,0.3-0.6,0.5-0.9c-0.1,0-0.2,0-0.3,0c-0.4,0-0.8,0.2-1.2,0.2c-0.8,0-0.8-1.2,0-1.2c0.3,0,0.6-0.1,0.9-0.2
		c0.2-0.1,0.5,0,0.7,0C50.6,64.7,51.3,64.6,51.6,65.1z"/>
	<path d="M49.3,69.8c0.3,0,0.6,0.3,0.6,0.6c0,0.2-0.1,0.4-0.2,0.6c0.1,0.3,0,0.6-0.1,0.8c-0.2,0.3-0.5,0.5-0.8,0.5
		c-0.5,0-1-0.2-1.4-0.6c-0.6-0.5,0.3-1.4,0.9-0.9c0,0,0,0,0,0l0,0l0.1,0c0,0,0.1,0.1,0.1,0.1c0-0.2,0.1-0.3,0.2-0.5
		C48.7,70,49,69.8,49.3,69.8z"/>
	<path d="M47.6,68c0,0.3-0.3,0.6-0.6,0.6c-0.3,0-0.6-0.3-0.6-0.6c0-0.1-0.1-0.4,0-0.4c-0.1,0-0.3,0-0.4,0c-0.4,0-0.7,0.1-1,0.4
		c-0.1,0.2-0.3,0.7,0,0.8c0.3,0.1,0.6,0.1,0.8,0c0.7-0.4,1.3,0.7,0.6,1.1c-0.8,0.4-1.8,0.3-2.4-0.3c-0.5-0.6-0.5-1.6,0-2.2
		c0.6-0.7,1.4-1.1,2.3-1C47.3,66.3,47.6,67.1,47.6,68z"/>
	<path d="M41.3,65.4c0,0.2-0.1-0.2-0.1-0.2c-0.1-0.1-0.1-0.3-0.1-0.4c0-0.2-0.1-0.4,0-0.6c0.1-0.2,0.2-0.4,0.4-0.6
		c1-0.7,2.3,0.5,3,1.1c0.6,0.6-0.3,1.4-0.9,0.9c-0.3-0.3-0.6-0.5-0.9-0.8c-0.1-0.1-0.2-0.1-0.3-0.2c0.1,0.2,0.1,0.3,0.2,0.5
		c0,0.1,0,0.1,0,0.2c0.5,0.5-0.3,1.3-0.9,0.9C41.4,66,41.3,65.7,41.3,65.4z"/>
	<path d="M41.7,69.8c0.3-0.2,0.7-0.1,0.8,0.2c0.2,0.3,0.1,0.7-0.2,0.8c-0.6,0.4-1.4,0.4-1.9,0c-0.2-0.2-0.3-0.6-0.2-0.9
		c0.1-0.1,0.1-0.3,0.2-0.4c0,0,0.1-0.1,0.1-0.2c0,0,0,0,0,0c0.1-0.3,0.4-0.5,0.8-0.4C41.6,69.1,41.8,69.4,41.7,69.8
		C41.7,69.8,41.7,69.8,41.7,69.8C41.7,69.9,41.7,69.9,41.7,69.8z"/>
</g>
</svg>
