<?xml version="1.0" encoding="utf-8"?>
<!-- Generator: Adobe Illustrator 27.5.0, SVG Export Plug-In . SVG Version: 6.00 Build 0)  -->
<svg version="1.1" id="Livello_1" xmlns="http://www.w3.org/2000/svg" xmlns:xlink="http://www.w3.org/1999/xlink" x="0px" y="0px"
	 viewBox="0 0 90.7 83.1" style="enable-background:new 0 0 90.7 83.1;" xml:space="preserve">
<path d="M88.5,3.9c-1.6-2.2-6.2-3.6-8.7-3.9c-3.3-0.3-6.1,0.5-8,3c-0.8,0-1.6,0.5-2.2,1c-0.2,0.1-0.4,0.2-0.5,0.4
	c-0.3,0.3-0.6,0.5-0.9,0.7c-2.9,2.3-5.8,4.6-8.6,6.9c-0.2,0.2-0.3,0.4-0.3,0.6c-0.3,0.1-0.6,0.1-0.9,0.2c-0.6,0.2-0.7,0.9-0.4,1.3
	c-5.6,4.2-11.1,8.4-16.3,13.1C36,32.3,31.4,38,26.3,43.5c-2.7,2.9-5.6,5.6-8.8,8c-2,1.5-4.8,2.7-6.1,4.9c-0.1,0.2-0.3,0.4-0.4,0.7
	c-0.7,0.6-1.5,1.1-2.2,1.7c-0.3,0.3-0.4,0.7-0.3,1L0.1,76.4c-0.3,0.6,0.1,1.2,0.8,1.2c0,0,0,0,0.1,0c12.4,5.3,26.8,7.9,39.5,1.9
	c2.3-1.1,4.2-2.9,5.4-5.1c1.9-3.4-1.5-6.9,3.7-8.9c6.1-2.3,13,2.3,19.4,0.5c0.4-0.1,0.7-0.6,0.6-1c-0.8-2.6-1.7-5-2.8-7.5
	c1.4-0.2,2.8-0.2,4.3,0.1c1,0.2,1.5-1.4,0.4-1.6c-2.1-0.4-4-0.3-6.1,0.1c-0.6,0.1-0.7,0.8-0.5,1.2c1.1,2.4,2,4.8,2.8,7.3
	c-5.8,1.2-11.5-1.8-17.3-1c-3.4,0.4-6.4,2.7-5.8,6.3c1.4,9.6-13.6,11.3-20.3,11.4c-7,0.1-14-1.8-20.6-4.4c2.6-0.6,5.3-1.1,7.9-1.6
	c0.4-0.1,0.7-0.1,1.1-0.2c0.3,0.2,0.6,0.1,0.9-0.1c2.3-0.3,4.8-0.5,7-1c0.3,0.2,0.7,0.3,1,0.1c0.3-0.2,0.7-0.5,1-0.7
	c0.1,0,0.1,0,0.2-0.1c0.2-0.1,0.4-0.2,0.5-0.4c10.6-7.3,21.5-14.3,31.7-22.1c5.5-4.2,10.1-9.5,14.9-14.4c1.3-1.3,2.6-2.6,3.6-4
	c0.3,0.4,1,0.5,1.3-0.1c1-1.7,2.1-3.4,3.2-4.9c0.5,0.5,1.5,0.3,1.4-0.5c0-0.4-0.1-0.8-0.1-1.2c1.5-1.8,3-3.5,4.8-5
	c0.1-0.1,0.3-0.2,0.3-0.3c0.7-0.7,1.5-1.3,2.3-2c0.1-0.1,0.3-0.3,0.3-0.4c1.7-1.1,3.1-2,3.5-4.7C91.1,10.4,90.2,6.4,88.5,3.9z
	 M21.7,50.3c4.2-3.5,7.7-7.7,11.3-11.7C41,29.4,50.2,22,60,14.7c0.2-0.1,0.3-0.3,0.3-0.4c2.5-0.2,4.8,0.6,6.7,2.4
	c-17.2,15.8-34.8,31-53,45.7c-0.4-0.2-0.8,0-1,0.3C7.4,59.8,19.4,52.2,21.7,50.3z M2.3,75.7L6.2,68c1.6,2,3.3,4,5.1,5.9
	C7.9,74.6,4.4,75.3,2.3,75.7z M13.2,73.5C11,71.3,8.9,68.9,7,66.4l3-6c0.1-0.2,0.1-0.4,0.1-0.6c0.1-0.1,0.1-0.1,0.2-0.2
	c-0.2,2.1,0.7,4,3.1,4.8c0.1,0,0.3,0,0.4,0c1.3,1.9,2.9,4.8,4.6,5.7c0.3,0.2,0.5,0.2,0.8,0.3c0.3,0.6,0.6,1.2,0.8,1.8
	C18.3,72.6,15.9,73,13.2,73.5z M19.7,68.6c-0.1,0-0.2-0.1-0.3-0.1c-0.4-0.1-0.9-0.5-1.4-1.2C17,66,16,64.8,15,63.6
	c18.3-14.7,36-30.1,53.3-45.9c1.7,2.3,3.4,4.6,5.2,6.8c-4.3,2.9-7.9,6.5-11.5,10.3c-4.8,5.1-10,9.4-15.5,13.6
	c-5.4,4.2-10.9,8.3-16.3,12.5c-2.9,2.2-5.8,4.5-8.8,6.7C20.7,68.3,20.2,68.6,19.7,68.6z M63.1,41.1c-3.9,4-7.9,7.7-12.4,11
	c-9.2,6.7-18.7,13-28,19.4c-0.2-0.1-0.4-0.1-0.7,0.1c-0.1,0-0.1,0.1-0.2,0.1c-0.1,0.1-0.2,0.2-0.3,0.4c-0.2-0.6-0.5-1.2-0.8-1.8
	c0.5-0.3,1-0.7,1.6-1.1c6.7-5.1,13.4-10.3,20.1-15.4c5.4-4.2,11-8.2,16.1-12.9c5.4-4.9,9.7-10.8,15.8-14.9
	C74.4,31.8,66.8,37.3,63.1,41.1z M75.7,27.8c0.2-1,0.3-2.1,0.1-3.3c-0.1-0.4-0.3-0.6-0.6-0.6l-5.9-7.9c-0.2-0.3-0.5-0.4-0.8-0.3
	c-1.9-2-4.4-3.1-7-3.2c0.4-0.3,0.8-0.8,1.4-1.2c0.1,0.2,0.2,0.4,0.5,0.5c6.1,1.1,12.8,7.1,14.2,13.4C76.9,26.1,76.3,27,75.7,27.8z
	 M79.7,22.7c-0.3,0.3-0.6,0.6-0.9,1c-2-6.4-8.5-12.2-14.8-13.4c1.7-1.5,3.7-3.2,5.5-4.2c1.6,2.3,4.3,4.1,6.4,5.9
	c2.6,2.3,5.5,4.5,6.8,7.8C81.6,20.7,80.7,21.7,79.7,22.7z M84.3,18.1c-0.2,0.1-0.3,0.2-0.4,0.3c-1.1-2.2-2.7-3.9-4.5-5.5
	C76.9,10.6,73,8.3,71,5.4c0.2-0.1,0.4-0.1,0.5-0.2c0.3,0.1,0.6,0.1,0.9-0.1c0.3,0,0.5,0,0.7,0.2c3.4,1.9,6.7,4.5,9.5,7.2
	C84.2,14,85.5,16.2,84.3,18.1z M88.8,14c-0.2,1-0.9,1.7-1.8,2.3c-0.7-2.2-3.4-5.2-4.1-5.9c-1.6-1.6-3.6-2.9-5.4-4.2
	c-1.1-0.8-2.5-2-3.9-2.7c4-3.7,12.9-1.5,14.7,3.6C89,9.2,89.2,11.9,88.8,14z"/>
</svg>
