<?xml version="1.0" encoding="utf-8"?>
<!-- Generator: Adobe Illustrator 27.5.0, SVG Export Plug-In . SVG Version: 6.00 Build 0)  -->
<svg version="1.1" id="Livello_1" xmlns="http://www.w3.org/2000/svg" xmlns:xlink="http://www.w3.org/1999/xlink" x="0px" y="0px"
	 viewBox="0 0 90.1 120" style="enable-background:new 0 0 90.1 120;" xml:space="preserve">
<g>
	<path d="M7,110.5c2.5,0.5,4.4,1.7,6.8,2.6c1.3,0.4,2.3,1.3,2.8,2.5c0.8,2.4,4.7-1.5,5.7-2.4c1.8-1.6,3.1-4.1,4.7-6
		c2.1-2.3,3.7-4.9,5.8-7.3c2.2-2.6,3.3-5.6,5-8.5c1-1.8,2.6-3.5,3.5-5.4c-7,3-13.7,6.1-19.4,11.4c-0.7,0.7-1.8-0.4-1.1-1.1
		c6.1-5.7,13.5-8.9,21.1-12.2c-0.1-0.1-0.1-0.2-0.2-0.2c-0.1-0.1-0.2-0.2-0.2-0.3c-0.2-0.1-0.3-0.1-0.5-0.2
		c-1.5-0.6-2.6-1.6-4.1-2.3c-0.9-0.4-0.1-1.7,0.7-1.3c1.9,0.9,3.3,2.2,5.5,2.5c2.1,0.3,3.9,1.3,6.1,1.4c4.1,0.2,8.2,0.4,12.3,0.9
		c1,0.1,1,1.6,0,1.5c-4.8-0.6-10.1-0.1-14.7-1.2c-0.9-0.2-2-0.4-3-0.7c0.8,1.2,1.5,2.6,2.2,3.8c0.8,1.6,2.1,2.9,3.7,3.7
		c0.6,0.3,1.2,0.6,1.8,1c1,0.9,1.7,2.3,3.1,2.9c1.3,0.6,2.8,1,4.1,1.5c1.9,0.8,3.3,2.4,5.2,3.1c0.9,0.3,0.5,1.8-0.4,1.4
		c-2.7-1-4.7-3-7.5-3.9c-0.8-0.2-1.5-0.5-2.2-0.9c0.5,0.7,1.1,1.3,1.7,1.8c2.4,2.1,4.7,3.4,6.5,6.1c1.4,2,3.6,3.2,5.1,4.9
		c0.1-2.8,0.2-5.1-0.8-7.5c-0.3-0.9,1.1-1.4,1.4-0.5c0.9,2.5,0.9,7.2,0.8,9.2c0.2,0.9,0.3,1.8,0.3,2.6c0,0.1,0,0.4,0,0.8
		c0.9,1.7,3.1-0.6,4.2-1.4c1.5-1.1,3.1-2,4.9-2.5c0.8-0.2,1.6-0.3,2.4-0.3c2.3,0,0.3-2.8,0-3.2c-0.5-0.7-1-1.5-1.3-2.3
		c-0.1,0-0.1-0.1-0.2-0.2c-0.7-1.2-0.7-3-2-3.8c-0.5-0.3-1-0.7-1.4-1.1c-0.3-0.2-0.9-1.1-1.2-1.1c-0.2-0.1-0.4-0.2-0.5-0.5
		c-0.2-0.1-0.3-0.2-0.4-0.4c-0.9-2.3-1.2-4.7-2.6-6.9c-1.3-2.1-3.9-3.7-6.1-4.8c-0.9-0.4-0.1-1.7,0.8-1.3c1.2,0.6,2.3,1.3,3.4,2
		c-1.3-3-4.1-4.4-7.2-5.7c-2.4-1-4.7-2.7-7.3-2.9c-1-0.1-1-1.6,0-1.5c1.6,0.2,3.2,0.7,4.6,1.5c1.8,1,3.9,1.4,5.6,2.5
		c0.8,0.5,1.5,0.9,2.2,1.4c0.4-1.3-1.2-3.4-1.7-4.4c-0.6-1-1.2-2-1.9-2.9c-0.1-0.1-0.2-0.2-0.3-0.4L63,74.3
		c-0.1-0.2-0.2-0.4-0.2-0.6c-0.6-1.1-1.2-2.2-2-3.3c-0.6-0.8-1.3-1.6-2-2.3c-0.2-0.3-0.5-0.6-0.7-0.9c-0.1,2.1-0.7,4.2-2,5.4
		c-0.9,0.8-3.2,0.7-4.4,0.9c-2.1,0.5-4.2,1.1-6.2,1.9c-4.8,1.8-10.6,3.5-15.7,3.5c-2.8-0.1-5.6-0.8-8-2.1c-3.2,2.8-5.3,6.7-6.1,10.8
		c-0.3,2,0.1,4-0.2,6c-0.2,0.9-0.4,1.7-0.8,2.6c1.6-0.9,3.2-1.8,4.7-2.8c0.8-0.6,1.5,0.7,0.7,1.3c-3,2.2-6.3,3.2-8.2,6.5
		c-0.6,0.8-1.1,1.7-1.5,2.7c0.1,0,0.2,0.1,0.2,0.2c1.6-0.1,3.2-0.6,4.6-1.4c5.1-2.8,10.2-5.4,15.2-8.4c0.4-0.2,0.8-0.1,1,0.3
		c0.2,0.4,0.1,0.8-0.3,1c-4,2.4-7.9,5.1-12.2,6.8c-2.2,0.9-6,3.7-8.7,3.2C9.4,107,7.4,110.5,7,110.5z M37.7,23.7c0,0,0-0.1,0-0.2
		c0-0.1,0.1-0.2,0.1-0.3c0.1-0.1,0.1-0.3,0.2-0.4c0.2-0.4,0.6-0.7,0.9-0.9c-2.5,0.1-4.8,1.4-6.1,3.5c-0.8,1.5-2.1,2.8-3.6,3.7
		c-0.4,0.2-0.8,0-1-0.4c0,0,0-0.1,0-0.1c-2.2,0.4-4.3,1.5-6,2.9c-0.8,0.6-1.5-0.7-0.8-1.3c0.7-0.5,1.3-1,2.1-1.4
		c-0.8-0.2-1.6-0.6-2.3-1c-1.1-0.8-2.2-0.6-3.3-1.1c-1.9-0.7-5.9-1.7-7-2c-0.8,0.7-1.3,2.4-1.8,3.3c-0.9,1.4-1.6,2.9-2.1,4.4
		c-0.2,0.7-0.4,1.5-0.4,2.2c0.7,0,1.4,0,2.1,0.1c4.8,0.4,9.8,2.9,14.7,3.2c-0.4-0.4-0.8-0.7-1.2-1c-1.2-0.8-2.5-1.4-3.8-1.9
		c-0.9-0.3-0.5-1.8,0.4-1.4c1.7,0.6,3.4,1.5,4.9,2.6c0.5,0.4,1,0.9,1.4,1.4c1.3,1,2.9,1.4,4.5,1c-0.7-0.3-1.5-0.7-2.2-1.2
		c-1.8-1.3-1.9-3.5-3-5.3c-0.5-0.8,0.8-1.6,1.3-0.8c0.4,0.5,0.7,1.1,1,1.7c0.3,1,0.5,2.5,1.6,3c1,0.6,2,1.1,3,1.6
		c0.1-0.4,0.1-0.7,0.2-1.2c-0.5-0.6-0.4-1.4,0.2-1.9c0.1-0.1,0.2-0.1,0.3-0.2c0,0,0,0,0,0c0-0.4,0-0.9,0.2-1.3
		c0.2-0.6,0.5-1.1,1-1.5c-0.1-0.5-0.1-1,0.1-1.4c0.2-0.6,0.5-1.1,0.9-1.6c0,0,0.1,0,0.1-0.1c0,0,0-0.1,0-0.1c0.2-0.7,0.6-1.3,1-1.8
		c0.3-0.3,0.6-0.5,0.9-0.8c0-0.1,0.1-0.2,0.1-0.3c0.1-0.3,0.2-0.6,0.5-0.9c0.3-0.3,0.6-0.5,1-0.7C37.6,23.9,37.6,23.7,37.7,23.7
		L37.7,23.7z M1.4,117.1c0.9,0.2,1.8,0.3,2.7,0.4c1.2,0,2.4,0,3.6,0c1.3-0.1,2.6-0.5,3.7-1.1c1-0.4,1.9-1,2.9-1.4
		c-0.6-0.3-1.2-0.6-1.8-0.8c-0.2-0.1-0.3-0.1-0.5-0.2c-0.1,0.2-0.2,0.3-0.4,0.4c-1.6,0.6-3.4,1.9-5.2,1.7c-1-0.2-1.8-0.9-2.2-1.9
		c-0.5,0.4-1,0.8-1.5,1.2C2.3,116,1.9,116.6,1.4,117.1L1.4,117.1z M89.6,51.5c0.7,0.7,0.8,1.9,0,2.7c-0.1,0.1-0.3,0.2-0.4,0.3
		c-0.1,0.8-0.7,1.4-1.5,1.5c-0.2,0-0.4-0.1-0.6-0.1c-0.2,0-0.4,0-0.6-0.1c-0.3-0.1-0.5-0.2-0.8-0.4c-0.3,0.3-0.7,0.5-1.1,0.6
		c-0.2,0-0.5,0-0.7-0.1c-0.1,0.3-0.3,0.5-0.4,0.8c-0.1,0.1-0.2,0.3-0.4,0.3c-0.6,0.9-1.7,2.8-2.9,2.5c-0.2,0.1-0.5,0.2-0.8,0.2
		c-0.1,0-0.2,0-0.3,0c-0.6,0.1-1.2,0.1-1.7-0.2c-1.1-0.2-2.1-0.5-3.1-0.9c-1.1-0.4-2.7-0.3-3.9-0.8c-1.6-0.2-3.1-0.7-4.3-1.7
		c-1.2-1-3-0.5-3.9-1.8c-0.8-1.2-1.1-2.6-1-4c-0.2,0-0.5,0-0.6-0.2c-0.3-0.4-0.7-0.8-1-1.2c-0.5,1.6,0.2,3,0.7,4.6
		c0.3,1,1.2,2.3,1.2,3.3c0.1,2.1-0.2,4.2-0.9,6.2c0.5,0.8,1,1.6,1.7,2.3c1,1.2,1.9,2.6,2.4,4.1c0.5,1.5,1.5,3.5,0.4,4.8
		c1,1.5,2,3,2.8,4.5c0.8,1.2,1,2.8,0.5,4.2c1.5,1.3,2.5,3,2.8,5c0,0.1,0,0.3,0,0.4c0.5,0.5,1,1.1,1.3,1.7c0.7,1.2,1.3,2.4,1.8,3.7
		c0.4,1.1,0.5,2.3,0.9,3.4c0.6,0.2,0.7,0.6,1.2,1c0.6,0.6,1.3,1.1,1.9,1.6c1.3,0.9,1.4,2.3,1.9,3.6c0.2,0.1,0.3,0.2,0.3,0.4
		c0.5,1.9,3.5,4.2,2.7,6.3c-0.3,1-1.2,1.7-2.2,1.8c0,0.3,0,0.6,0,0.9c0.4,1.2,0.5,2.5,0.3,3.8c-0.2,2-1.5,2.7-3.4,3.1
		c-1.3,0.2-2.6,0.3-4,0.3c-0.9,0.1-1.8,0.1-2.6-0.2c-0.7-0.4-0.5-1.5-0.5-2.1c0-0.1,0-0.2,0-0.4c-0.3,0.2-0.7,0.2-1.1,0.1
		c-0.6-0.1-1.4-0.2-1.7-0.8c-0.1-0.2-0.2-0.4-0.3-0.6c-0.3-0.6-0.4-1.3-0.4-1.9c0-3.4-3.7-5-5.7-7.4c-1.4-1.6-2.4-3.6-4.3-4.8
		c-1-0.5-1.9-1.2-2.7-2c-1.9-2.1-3.8-5.2-6-6.9c-0.1-0.1-0.2-0.2-0.2-0.4c-1-0.5-1.9-1.2-2.5-2.2c-0.8-1.4-1.7-3.2-2.7-4.7
		c-0.6,1.4-1.4,2.8-2.3,4.1c-1.7,2.6-3.1,5.4-4.7,8.1c-3.2,5.3-7.9,9.5-11.2,14.6c-2,3-4.9,5.4-8.6,5.1c-0.4-0.1-0.8-0.4-1-0.8
		c-0.1-0.2-0.2-0.4-0.3-0.6c-2.5,1.1-4.6,2.8-7.4,2.8c-2.3,0-4.8,0.2-7.1-0.5C0.2,118.3,0,118,0,117.7c0.2-2.8,2.9-5.1,5.7-6.2
		c-0.1-0.1-0.1-0.3-0.1-0.4c-0.3-2.1,1.9-4.6,3.4-6.4c-0.1-0.1-0.1-0.3,0-0.4c0.4-1.7,1-3.9,2.2-5.3c0.5-0.5,1-1,1.5-1.4
		c0-0.1,0-0.2,0-0.3c1.5-4.1,1-8.5,2.3-12.8c1.1-3.3,3.1-6.3,5.7-8.6c-0.3-0.2-0.5-0.5-0.7-0.8c-0.1-0.2-0.1-0.5,0-0.8
		c0.7-1.4,2.4-2.3,3-3.7c-0.2-0.2-0.2-0.6-0.1-0.9c2.2-3,3.7-6.4,4.3-10.1c0.3-1.9,0.2-5.6,1.4-7.4c-0.2-0.3-0.2-0.7-0.1-1
		c0.1-0.5,0.5-0.8,0.9-1c0-0.3,0-0.5,0.1-0.8c0.2-0.5,0.4-0.9,0.6-1.3c-0.3-0.7,0-1.9,0.3-2.6c-0.1-0.4-0.1-0.8,0-1.3
		c0-0.1,0-0.4,0.1-0.6c0-0.1,0.1-0.2,0.2-0.4c-0.1-0.4-0.1-0.9,0.1-1.3c0-0.3,0.1-0.5,0.3-0.8c0-0.1,0.1-0.1,0.1-0.2
		c-0.2-0.2-0.2-0.5-0.2-0.8c0-0.3,0.1-0.7,0.1-1c-0.1,0.2-0.2,0.3-0.4,0.3c-1.8,0.8-3.9,0.8-5.6-0.1c-0.1-0.1-0.2-0.1-0.3-0.2
		c-0.1,0.1-0.3,0.1-0.4,0.1c-3.1,0-5.9-1-9-1.6c-3.2-0.7-6.4-1.7-9.6-1.7c-0.3,0-0.5-0.1-0.6-0.4c-0.8-1.6,0.3-4.1,1-5.6
		C5,29.9,4.3,29,4.4,27.9c0-0.2,0-0.4,0-0.6c0-0.1,0-0.2,0-0.3c-0.4,0-0.7-0.1-1-0.3C3,26.2,2.8,25.6,2.9,25
		c0.1-1.4,1.7-1.9,2.8-2.3c1.4-0.6,2.8,0.2,3.8,1.2c0.1-0.1,0.3-0.3,0.5-0.4c0.1-0.2,0.3-0.3,0.4-0.3c0.7,0,2.2-0.2,3,0.2
		c1.7,1.1,3.6,1.7,5.6,1.9c1.3,0,1.8,0.6,3,1.3c1,0.6,2.1,0.8,3.1,1.3c0,0,0.1,0,0.1,0.1c1.3-0.6,2.6-0.9,4-0.9c0.1,0,0.2,0,0.3,0.1
		c1.7-1.5,2.3-4,4.2-5.1c1.8-1.1,3.9-1.7,6.1-1.7c0-0.1,0.1-0.2,0.1-0.2c0.1-0.3,0.4-0.6,0.7-0.8c0.2-0.1,0.4-0.1,0.6-0.1
		c0.1,0,0.3,0,0.1,0c0.1,0,0.1,0,0.2-0.1c0-1.3,0-2.4,0-2.4c0-0.1,0-0.1,0-0.2c-0.1-0.4-0.3-0.8-0.3-1.2c0,0,0,0,0-0.1
		c-0.1,0-0.1,0-0.2,0c-1.6-0.6-3.6-4.1-1.9-5.6c0-3.5,0.2-5.4,2.3-7.8c1.4-1.6,4.1-1.9,6-1.9c5.5,0,6.5,5.3,6.8,9.5
		c0,0.1,0,0.3-0.1,0.4c0,0.2,0,0.4,0,0.6c0,0,0,0,0.1,0c1,0.2,1,1.4,0.9,2.1c0,1-0.5,1.9-1.3,2.5c-0.1,0-0.1,0.1-0.2,0.1
		c-0.4,1.4-1,2.8-1.8,4c0,0.1,0,0.2,0,0.3c2.8,3.3,7.6,4.5,11,7.3c0.5,0.4,0.7,1.6,0.9,2.1c0.5,1.3,1.2,2.4,2.2,3.3
		c1.7,1.8,1.3,2.9,1.9,5.3c0,0.1,0,0.3,0,0.4c0.9,0.5,1.7,1.1,2.5,1.7c0.9,0.7,1.2,1.9,2.1,2.7c0.5,0.3,0.9,0.8,1.2,1.3
		c0.7-0.2,1.5-0.2,2.2,0c0.9,0.4,0.4,0.3,1.2-0.2s1.8-0.7,2.6-1.2c0.1-0.1,0.2-0.1,0.3-0.1c0.8-1.3,2-3,3.1-2.6
		c2,0.7,0.8,2.6,0.7,4.3c0,0,0,0,0,0c0.7,0.4,1.3,1.1,1.5,1.9c0.2,0.8,0.4,1.5,0.5,2.3c0,0.1,0,0.2,0,0.3
		C86.9,49.4,88.3,50.2,89.6,51.5z M88,53.4c1.4-0.6-3-3.7-3.5-4.1c-1-0.9-1.7-2-2-3.3c-0.3-1.2-0.3-2.4,0-3.6
		c0.1-0.4,0.2-0.9,0.4-1.3c-0.4,0.2-0.8,0.6-1,1c-0.5,1.1-0.6,0.8-1.2,1.9c-0.1,0.2-0.3,0.3-0.6,0.4c-0.5,1.1-0.8,2.6-1.1,3.3
		c-0.6,1.2-1,2.5-1.2,3.9c0.9,0.5,1.9,1,2.9,1.4c0.4,0.2,0.9,0.5,1.2,0.8c0.2,0.1,0.4,0.4,0.6,0.6c0.1-0.3,0.4-0.4,0.7-0.4
		c0.2,0,0.5,0,0.7,0.2c0.1,0.1,0.5,0.4,0.6,0.3c0.2-0.1,0.3-0.2,0.3-0.4c0.2-0.3,0.6-0.5,0.9-0.3c0.1,0,0.1,0.1,0.2,0.1
		c0.2,0,0.4,0.1,0.5,0.2c0.2,0.2,0.4,0.2,0.7,0.2c0.2,0,0.3,0,0.5,0c0-0.1,0.1-0.1,0.1-0.2C87.5,54,87.6,53.6,88,53.4
		C87.9,53.4,88,53.4,88,53.4L88,53.4z M81.9,56c0-0.1,0.1-0.1,0.2-0.2c-0.6-0.3-1.1-0.9-1.6-1.3c-0.7-0.4-1.4-0.7-2.1-0.9
		c-0.2-0.1-0.4-0.2-0.6-0.3c0.2,1.9,1,2.3,2.2,3.7C80.8,58.1,81.3,56.9,81.9,56L81.9,56z M78.4,117.9c1-0.4,1.5-1.4,1.4-2.4
		c-0.4,0.6-1,1.2-1.5,1.3c-1.3,0.1-2.7,0.1-4,0c-0.4,0.1-0.9,0-1.3-0.3c-0.1-0.1-0.1-0.1-0.2-0.2c-0.4,0.7-0.6,1.5-0.6,2.3
		c1,0.1,1.9,0.1,2.9,0C76.2,118.4,77.3,118.2,78.4,117.9L78.4,117.9z M79.4,113c-0.1-0.3-0.3-0.5-0.4-0.8c0,0,0-0.1-0.1-0.1
		c-0.4,0.1-0.8,0.2-1.2,0.3c-1.4,0.7-2.7,1.5-3.9,2.5c0.3,0.2,0.6,0.3,0.9,0.3c0.7,0,1.5,0,2.2,0C78.2,115.2,79.2,114.2,79.4,113z
		 M78.4,44.4c-0.4,0.2-0.8,0.5-1.1,0.8c-0.3,0.3-0.8,0.4-1.2,0.2c-0.9-0.4-1.9-0.6-2.9-0.4c-1.2,0-3.6-0.2-3.6-0.2c0,0-0.1,0-0.1,0
		l-0.1,0c-1.6,0.1-2.2,0.8-3.2,2c-1,1.1-1.8,2.3-2.3,3.7c-0.3,0.9-1.8,0.5-1.4-0.4c0.7-1.9,2-3.4,3.1-5c0.9-1.1,2.3-1.8,3.8-1.7
		c0,0,0.1,0,0.1,0c0,0,0.1,0,0.1,0c0.5,0,1.2,0,2,0c-0.4-0.3-0.7-0.7-1-1.1c-0.5-1-1.3-1.8-2.2-2.3c-1.5-1-3.1-1.8-4.6-2.8
		c-0.8-0.5-0.1-1.8,0.8-1.3c0.6,0.4,1.2,0.7,1.7,1.1c-0.1-0.5-0.1-1-0.2-1.6c-0.3-2-1.3-1.8-2.2-2.9c-1.2-1.4-1.3-4-2.8-5.1
		c-2.2-1.8-4.8-3.2-7.5-4.1c-1.4-0.3-1.7-1.1-2.4-2c-0.5,0.7-1.2,1.4-2,1.8c-1.1,0.6-2.2,1.1-3.3,1.6c-0.8,0.3-1.6,0.5-2.4,0.7
		c-0.1,0.1-0.2,0.2-0.3,0.2c-0.7,0.3-1.3,0.6-1.9,1.1l0.1,0.1c0.1,0.1,0.3,0.2,0.4,0.3c0.4,0.2,0.5,0.7,0.3,1
		c-0.2,0.4-0.7,0.5-1,0.3c-0.2-0.1-0.4-0.2-0.6-0.4c-0.2,0-0.4,0-0.6-0.2c-0.3,0.2-0.5,0.4-0.8,0.5c0.1,0.1,0.1,0.1,0.2,0.2
		c0.2,0.3,0.4,0.6,0.5,1c0.1,0.4-0.1,0.8-0.5,0.9c-0.4,0.1-0.8-0.1-0.9-0.5c-0.1-0.3-0.3-0.6-0.6-0.8c-0.9,0.5-1.8,1.1-2.6,1.8
		c0,0.4-0.2,0.8-0.4,1.1c-0.1,0.2-0.3,0.3-0.4,0.4c0,0.1,0,0.2-0.1,0.3c0,0.1,0,0.2,0,0.3c-0.1,0.4-0.2,0.8-0.3,1.1
		c-0.1,0.3-0.2,0.7-0.3,1c-0.1,0.2-0.2,0.3-0.4,0.4c0,0.4-0.2,0.8-0.4,1.1l0,0c0,0.2,0,0.3,0,0.5c0.1,0.1,0.1,0.2,0.1,0.4
		c0,0.2,0,0.3,0,0.5c0,0,0,0,0,0c0,0,0,0,0,0c0.1-0.1,0.3-0.2,0.4-0.2c0.3-0.1,0.7,0,0.8,0.3c0.1,0.1,0.2,0.1,0.3,0.3
		c1.1,1.8,1.1,3.6,1.3,5.6c0.1,1,0.8,2.5,0.7,3.6c-0.1,1.1-0.2,2.1-0.2,3.2c0,0,0,0.1,0,0.1c0.1,0.2,0.1,0.5,0,0.7
		c-0.2,0.4-0.6,0.8-1,1c-0.6,0.4-1,1-1.3,1.6c-0.3,0.9-0.7,1.8-1.2,2.5c0.2,2.1,0.2,4.3,0.6,6.4c0.3,1.6,1.1,7-0.8,7.7
		c-0.3,0.1-0.7-0.1-0.8-0.3c0,0,0-0.1-0.1-0.1c-0.2,0.5-0.5,0.9-0.9,1.3c-0.7,0.4-1.2-0.1-1.4-0.7c-0.1-0.1-0.1-0.3-0.2-0.5
		c-0.5,1-1.3,1.8-2.3,1.6c-0.3-0.1-0.5-0.4-0.5-0.7c0-0.4-0.1-0.7-0.1-1.1c-0.1,0-0.1,0.1-0.2,0.1c-0.4,0.3-0.9,0.6-1.4,0.7
		c-0.4,0.9-0.9,1.7-1.6,2.4c-2.2,2.3,1.1,2.5,3,3.2c4.5,1.7,10.1,0.4,14.6-1c3.7-1.1,7.2-2.5,11-3.4c1.8-0.4,3.7-0.2,4.4-2
		c0.9-1.9,1.1-4.1,0.6-6.2c-0.1-0.4,0.1-0.8,0.5-0.9c0.4-0.1,0.8,0.1,0.9,0.5c0.2,0.6,0.3,1.3,0.3,2h0c0.7,0.3,1.3,0.9,1.7,1.5
		c0.6,0.8,1.3,1.4,1.9,2.2c0.7,1,1.3,2,1.9,3.1c-0.2-1-0.5-2-0.9-2.9c-0.7-1.4-1.6-2.7-2.6-3.8c-1.5-1.3-1.9-3.5-2.6-5.3
		c-0.4-0.9,1.1-1.3,1.4-0.4c0.2,0.5,0.4,0.9,0.5,1.4c0.6-2.5-0.1-4.8-0.8-7.3c-0.7-2.5-1.6-3.8-0.4-6.3c0-0.1,0.1-0.1,0.1-0.2
		c-0.6-1.2-1.2-2.3-1.7-3.6c-0.2,0.2-0.5,0.4-0.8,0.6c-0.4,0.2-0.9,0.3-1.4,0.4c-0.4,0.2-0.9,0.4-1.4,0.6c-0.4,0-0.8,0-1.3,0
		c-1,0-1-1.5,0-1.5c0.3,0,0.9,0.2,1.2,0c0.3-0.2,0.7-0.3,1-0.5c0.5-0.1,0.9-0.2,1.3-0.4c0,0,0,0,0.1,0c-0.4-0.1-0.8-0.3-1.2-0.5
		c-0.3-0.2-0.4-0.8-0.8-0.9c-0.3-0.1-0.6-0.2-0.9-0.4c-0.8-0.6-1.5-1.2-2.2-1.9c-0.8-0.5-1.5-1.1-2.2-1.8c-0.6-0.7,0.4-1.8,1.1-1.1
		c1.1,1.1,2.4,2.1,3.6,3c0.6,0.5,1.4,0.6,1.9,1.1c0.2,0.3,0.5,0.6,0.9,0.8c-0.9-1.8-2.6-3-3.3-4.9c-1-2.7-1.4-5.3-4.1-7.1
		c-0.8-0.5,0-1.8,0.8-1.3c4,2.8,3.9,7.4,7.1,10.9c1.2,1.3,1.1,3.4,1.9,4.9c0.8,1.7,1.8,3.3,2.9,4.7c0.1-1.8,0.2-3.6-0.8-5.1
		c-0.5-0.8,0.8-1.6,1.3-0.8c1.6,2.4,0.5,5.8,0.7,8.5c0.3,2.8,2.2,1.7,3.7,2.9c0.6,0.4,1.2,0.8,1.8,1.1c-1.1-1.6-1.8-3.4-1.9-5.3
		c-0.1-0.9,1.3-1.3,1.4-0.4c0.3,2.2,0.9,5.8,3.6,6.6c0.1,0,0.2,0.1,0.4,0.1c0,0,0.1,0,0.1,0c0.6,0.2,1.3,0.2,1.9,0.3
		c-0.5-1-0.9-2.1-1-3.2c-0.5-1.4-0.9-2.8-1.1-4.2c-0.1-1,1.4-1,1.5,0c0.3,2,0.9,3.9,1.6,5.8c0.4,1.1,2.3,2.3,3.9,2.7
		c-0.8-0.9-1.4-1.9-1.7-3.1c-0.5-2.4-0.2-4.9,0.8-7.2C77.7,46.8,78,45.6,78.4,44.4L78.4,44.4z M50.5,18.4c1.7-2.1,2.1-5.4,2.1-8
		c-0.1-3.1-2.4-8.3-6.4-6.3c-2.5,1-4.1,3.3-4.4,6c0,0.1,0,0.2-0.1,0.3c0.6,1.5,0.6,3.8,0.8,4.6C43.4,18,47.7,21.9,50.5,18.4z
		 M48.4,2.2c0.9,0.2,1.8,0.7,2.6,1.2c-0.9-1.3-2.5-2-4.1-1.9c-2.2-0.1-4.3,0.9-5.5,2.7c-0.8,1.3-0.9,3.7-0.9,5h0.1
		C41.3,5.8,44.5,1.1,48.4,2.2z M48.5,21.5c-1.1,0.1-2.2-0.2-3.1-0.9c-1-0.7-1.8-1.2-2.5-1.8c0,1,0.1,2.1,0,3.1
		c-0.1,0.6-0.2,1.3-0.2,1.9c1.5-0.4,2.9-0.9,4.3-1.6C47.4,22.1,48,21.9,48.5,21.5L48.5,21.5z M41.5,24.6c-0.4-0.9,0-1.6,0-2.7
		c-0.2,0.3-0.3,0.5-0.6,0.7c-0.1,0.1-0.2,0.2-0.3,0.2c0,0.1,0,0.1,0,0.2c-0.1,0.4-0.3,0.7-0.5,1c-0.2,0.2-0.4,0.4-0.6,0.6
		c-0.1,0.1-0.3,0.2-0.4,0.3c-0.1,0.1-0.2,0.2-0.4,0.2l-0.2,0c-0.1,0.7-0.4,1.3-0.8,1.8c-0.3,0.3-0.6,0.4-1,0.3
		c-0.1,0.1-0.3,0.4-0.4,0.5c0,0,0,0,0,0c0,0.1,0,0.1,0,0.2c0.7-0.4,1.3-0.8,2-1.2c0.2-0.1,0.4-0.3,0.7-0.4c-0.1-0.1-0.1-0.2-0.2-0.4
		c-0.1-0.4,0.1-0.8,0.5-0.9c0.3-0.1,0.7,0.1,0.8,0.4C40.6,25.2,41,24.9,41.5,24.6L41.5,24.6z M40.7,13.5c-0.1-0.6-0.2-1.1-0.2-1.7
		c0-0.2-2-1.2-0.3,1C40.4,13,40.6,13.2,40.7,13.5L40.7,13.5z M34.7,50.5c0-1,0.3-2.2,0.2-3.2c-0.1-0.9-0.5-1.7-0.6-2.6
		c-0.2-1.8-0.2-3.7-1.1-5.4c-0.1,0-0.2,0.1-0.2,0.1c0,0-0.1,0.1-0.1,0.1c0.2,0.6,0.1,1.2-0.2,1.8c0,0,0,0.1,0,0.1
		c0,0.1-0.1,0.2-0.2,0.4c0,0.1,0.1,0.2,0.1,0.3c0.1,0.6-0.1,1.1-0.4,1.6c0,0,0,0-0.1,0.1c0,0,0,0.1,0,0.1c0.1,0.1,0.2,0.3,0.2,0.5
		c0,0.5-0.1,1-0.4,1.4c0.1,0.1,0.1,0.2,0.1,0.4c0,0.5-0.1,1.1-0.2,1.6c0.1,0.1,0.1,0.2,0.1,0.2c0.2,0.7,0.1,1.5-0.3,2.1
		c0,0.1-0.1,0.1-0.1,0.2c0.3,0.4,0.4,0.8,0.3,1.3c-0.1,0.2-0.2,0.3-0.3,0.5c0.3,0.6,0.5,1.3,0.6,1.9c0.2-0.5,0.4-0.9,0.6-1.3
		c0.2-0.4,0.5-0.8,0.9-1.1c0.4-0.2,0.7-0.5,1-0.7C34.7,50.6,34.7,50.6,34.7,50.5z M31.9,67.3C32,66.5,32,65.7,32,65
		c0-1.3-0.3-2.4-0.4-3.7c-0.2-2.6-0.2-6.1-1.2-8.6c-0.1,0-0.1,0.1-0.2,0.1c0,0-0.1,0-0.1,0c0,0,0,0.1-0.1,0.1
		c-0.8,0.8-0.8,4.1-1,5.2c-0.2,1.5-0.6,3-1,4.5c-0.6,2.1-1.4,4-2.5,5.9c0.3-0.2,0.5-0.4,0.7-0.6c0.2-0.1,0.5-0.1,0.8,0
		c0.6,0.6,1,1.4,0.8,2.2c0.2-0.8,0.4-1.5,0.6-2.3c0.1-0.4,0.6-0.6,1-0.5c0.2,0.1,0.4,0.2,0.4,0.4c0,0,0.1,0,0.1,0.1
		c0.2,0.4,0.4,0.8,0.5,1.2c0.1-0.4,0.2-0.7,0.2-1.1c0-0.4,0.4-0.7,0.8-0.7c0.2,0,0.4,0.1,0.5,0.2C31.9,67.5,31.9,67.4,31.9,67.3
		L31.9,67.3z M8.1,114.1c0.8-0.2,1.5-0.5,2.2-0.9c-0.8-0.3-1.6-0.7-2.4-0.9c-0.8,0.2-1.6,0.6-2.4,1c0,0,0,0.1,0,0.1
		c0,0.3,1,1.1,1.2,1.1C7.4,114.6,7.5,114.3,8.1,114.1z M8.6,25c-0.3-0.3-0.7-0.6-1.1-0.8C7,24,6.3,24,5.8,24.3
		c-0.1,0-2.2,0.9-1.2,1.4c0.5,0.2,1.3,0.4,1.3,1.1c0,0.5-0.2,2.2,0.7,1.9c0.1,0,0.2,0,0.3,0C7.3,27.4,7.9,26.2,8.6,25L8.6,25z"/>
	<path d="M76.4,103.3c0.9,0.5,0.1,1.8-0.7,1.3c-2.5-1.3-4.9-3.1-7.4-4.2c-2.3-1.1-4.6-3.5-7.1-4c-0.9-0.2-0.5-1.7,0.4-1.4
		c2.5,0.6,4.4,2.7,6.6,3.8C71,100,73.6,101.8,76.4,103.3z"/>
	<path d="M76.1,107.7c0.7,0.7-0.4,1.7-1.1,1.1c-0.5-0.5-1.1-1-1.6-1.5c-0.3-0.3-0.3-0.8,0-1.1c0.3-0.3,0.8-0.3,1,0
		C75,106.7,75.6,107.2,76.1,107.7z"/>
	<path d="M72.1,55c0.3,0.9-1.2,1.3-1.4,0.4c-0.2-0.7-0.7-1.3-0.9-2c-0.2-0.9-0.2-1.7-0.3-2.6c-0.2-1.3-0.2-2.6,0-3.8
		c0.1-1,1.6-0.5,1.4,0.4c-0.1,1.4,0,2.8,0.2,4.2C71.1,53,71.7,53.8,72.1,55z"/>
	<path d="M65.7,92.5c0.9,0.3,0.5,1.7-0.4,1.4c-1.8-0.7-3.6-1.3-5.5-1.7c-2-0.4-3.9-1.1-5.7-2c-0.9-0.3-0.5-1.8,0.4-1.4
		c1.9,0.8,3.8,1.5,5.7,2C62.1,91.2,63.9,91.9,65.7,92.5z"/>
	<path d="M64.5,39.4c0.9-0.3,1.3,1.1,0.4,1.4c-0.4,0.1-0.8,0.3-1.2,0.5C63.5,41.4,63,41.7,63,42c0,0.4-0.3,0.7-0.7,0.7
		c-0.4,0-0.7-0.3-0.7-0.7C61.7,40.4,63.3,39.8,64.5,39.4z"/>
	<path d="M62.3,32.4c1-0.1,1,1.4,0,1.5c-0.9,0.1-1.6,0.6-2,1.4c-0.3,0.4-0.5,0.8-0.8,1.2c-0.2,0.2-0.3,0.5-0.5,0.8
		c-0.1,0.4-0.5,0.6-0.9,0.5c-0.4-0.1-0.6-0.5-0.5-0.9c0.2-0.6,0.6-1.1,0.9-1.7c0.3-0.5,0.7-1,1-1.5C60.2,32.9,61.2,32.4,62.3,32.4z"
		/>
	<path d="M56,49.3c0.1,0.4-0.1,0.8-0.5,0.9c-0.5,0.2-1,0.2-1.6,0.2c-0.4,0-0.8-0.3-0.8-0.8s0.3-0.8,0.8-0.8c0.4,0,0.8,0,1.2-0.1
		C55.5,48.7,55.9,48.9,56,49.3C56,49.3,56,49.3,56,49.3z"/>
	<path d="M55,53.7c0.8-0.5,1.6,0.8,0.7,1.3c-2.8,1.8-5.8,4.4-9,5.4c-3.5,1.1-7,2.8-10.4,4.2c-0.9,0.4-1.3-1.1-0.4-1.4
		c1.3-0.5,2.7-1,4.2-1.6c-0.9-0.7-1.4-1.7-2.2-2.4c-1.2-1.2-2.2-2.5-2.9-4c-0.2-0.4-0.1-0.8,0.3-1s0.8-0.1,1,0.3
		c0.8,1.3,1.5,2.9,2.8,3.8c1,0.7,1.2,2,2.4,2.5c0.1,0.1,0.3,0.2,0.3,0.3c1.8-0.6,3.5-1.4,5.2-2.3C49.8,57.2,52.4,55.4,55,53.7z"/>
	<path d="M54.3,59.1c0.4,0.2,0.5,0.7,0.3,1c-0.2,0.2-0.3,0.4-0.5,0.6c-0.2,0.4-0.7,0.5-1,0.3c-0.4-0.2-0.5-0.7-0.3-1
		c0.2-0.2,0.3-0.4,0.5-0.6C53.5,59,54,58.9,54.3,59.1z"/>
	<path d="M52.9,46.6c0.4-0.1,0.8,0.1,0.9,0.5c0.1,0.4-0.1,0.8-0.5,0.9c-0.5,0.1-1,0.3-1.5,0.5c-0.4,0.2-0.9,0.2-1.3,0.3
		c-0.9,0.4-2.4,0.8-2.8,1.7c-0.4,0.9-1.7,0.1-1.3-0.8c0.7-1.4,1.9-1.4,3.1-2.1c0.5-0.2,1.1-0.4,1.6-0.5C51.7,47,52.3,46.8,52.9,46.6
		z"/>
	<path d="M51,61.2c0.7-0.6,1.8,0.4,1.1,1.1c-1.6,1.4-3.4,2.5-5.3,3.2c-2.2,0.6-4.2,2.1-6.4,2.4c-1,0.1-1-1.4,0-1.5
		c1.4-0.1,2.6-1.1,3.8-1.7c0.6-0.2,1.1-0.4,1.7-0.5C47.7,63.4,49.5,62.4,51,61.2z"/>
	<path d="M51.7,53.2c0.1,0.4-0.1,0.8-0.5,0.9c-0.3,0.1-0.7,0.2-1,0.3c-0.4,0.1-0.8-0.1-0.9-0.5c0,0,0,0,0,0
		c-0.1-0.4,0.1-0.8,0.5-0.9c0.3-0.1,0.7-0.2,1-0.3C51.2,52.6,51.6,52.8,51.7,53.2z"/>
	<path d="M50.9,34.2c0.7,0.7-0.3,1.7-1.1,1.1c-0.4-0.4-0.8-0.8-1.2-1.2c-0.3-0.5-0.6-1-0.9-1.5c-0.2-0.4-0.1-0.8,0.3-1
		c0.4-0.2,0.8-0.1,1,0.3c0.2,0.5,0.5,0.9,0.8,1.3C50.2,33.6,50.5,33.9,50.9,34.2z"/>
	<path d="M46.4,53.3c0.7,0,0.7,1.5,0,1.5c-3,0-6,0.3-8.4-1.2c-0.8-0.5-0.1-1.8,0.7-1.3C40.8,53.7,44.1,53.3,46.4,53.3z"/>
	<path d="M32.5,81.5c0.8-0.5,1.6,0.8,0.7,1.3c-2.5,1.7-4.7,3.7-7.4,5.1c-2.1,1.1-3.9,3.3-6.2,3.9c-0.4,0.1-0.8-0.1-0.9-0.5
		c-0.1-0.4,0.1-0.8,0.5-0.9l0,0c1.1-0.3,2.8-1.9,3.7-2.6c0.9-0.6,1.9-1.1,2.9-1.7C28.3,84.7,30.3,83,32.5,81.5z"/>
	<path d="M30.4,33c0.7,0.6-0.3,1.7-1.1,1.1c-0.3-0.3-0.6-0.6-0.9-0.8c-0.3-0.2-0.6-0.4-0.8-0.7c-0.5-0.5-0.9-1.1-1.1-1.8
		c-0.2-0.9,1.2-1.3,1.4-0.4c0.2,0.6,0.6,1.2,1.2,1.5C29.5,32.3,29.9,32.6,30.4,33z"/>
	<path d="M25.9,102.9c0.7-0.6,1.8,0.4,1.1,1.1c-4,3.3-8.6,4.4-13.1,6.6c-0.9,0.4-1.6-0.9-0.8-1.3C17.4,107.2,22,106.1,25.9,102.9z"
		/>
	<path d="M22.7,81.3c0.9-0.4,1.6,0.9,0.8,1.3c-0.7,0.3-1.3,0.8-1.9,1.4c-0.3,0.3-0.8,0.3-1.1,0c0,0,0,0,0,0c-0.3-0.3-0.3-0.8,0-1.1
		C21.1,82.3,21.8,81.7,22.7,81.3z"/>
	<path d="M14.7,27.4c0.5-0.8,1.8-0.1,1.3,0.8c-0.5,1-0.7,2-0.6,3.1c-0.1,0.7-0.2,1.4-0.1,2.1c0.1,0.5,0.2,1,0.3,1.4
		c0.1,0.9-1.3,1.3-1.4,0.4c-0.2-0.7-0.3-1.4-0.4-2.1c0-0.8,0.2-1.6,0.2-2.4C13.8,29.6,14.1,28.4,14.7,27.4z"/>
	<path d="M11.7,28.5c0.2-0.9,1.6-0.5,1.4,0.4c-0.2,1.2-0.7,2.3-1,3.4c-0.1,0.4-0.5,0.6-0.9,0.5s-0.6-0.5-0.5-0.9
		C11,30.8,11.5,29.6,11.7,28.5z"/>
</g>
</svg>
