<?xml version="1.0" encoding="utf-8"?>
<!-- Generator: Adobe Illustrator 27.5.0, SVG Export Plug-In . SVG Version: 6.00 Build 0)  -->
<svg version="1.1" id="Livello_1" xmlns="http://www.w3.org/2000/svg" xmlns:xlink="http://www.w3.org/1999/xlink" x="0px" y="0px"
	 viewBox="0 0 84.6 89.9" style="enable-background:new 0 0 84.6 89.9;" xml:space="preserve">
<g>
	<path d="M83.9,31c-4.5-1-9.1-1.9-13.6-2.9c-0.2-2.1,1.2-2.9,1.7-4.9c0.2-0.6,0.3-1,0-1.6c-1-2.1-6.4-1.9-8.3-2.2
		c-1-0.2-1.9-0.3-2.8-0.5c2.3-2.6,4.5-5.1,6.8-7.7c0.5-0.6,0.1-1.4-0.6-1.5c-2.2-0.2-4-2.6-6.2-0.8c-0.4,0.3-0.8,0.8-1.1,1.2
		c0.6-2.3,1.2-4.6,1.7-6.9c0.1-0.4-0.1-0.8-0.4-1c-1-0.7-2-1.4-3.1-2.1c-0.6-0.4-1.3,0.2-1.3,0.8c-2.7,0-5.5,0-8.2,0
		c-0.5,0-0.9,0.4-0.9,0.9c0,4.7-0.5,9.3-1.4,13.9c-3.1-0.8-6.1-1.6-9.2-2.5c-1.1-0.3-1.5,1.4-0.5,1.7c0.1,0,0.3,0.1,0.4,0.1
		c-2.1,1.9-3.8,4.1-5.1,6.6c-2.7-0.4-5.4-0.8-8-1.1c-3.6-0.5-8.3-1.9-11.9-1c-3.6,0.9-3.6,3.7-3.7,6.6c-0.2,0.1-0.4,0.2-0.5,0.5
		c-3.8,10.7-6.2,21.9-7,33.2C0.3,64.1-0.8,70,1,74.1c1.6,3.7,5.9,4.6,9.5,5.4c21.5,5,44.3,1.8,65,10.3c0.6,0.2,1.1-0.3,1.1-0.8
		c1.1-19.2,3.7-38.2,7.9-56.9C84.7,31.6,84.4,31.1,83.9,31z M60.9,11.5c0.5-0.7,1.3-1.5,2.2-1.4c0.5,0.1,1.1,0.5,1.5,0.8
		c0.2,0.1,0.5,0.2,0.7,0.3L59.4,18c-0.2,0.2-0.2,0.4-0.2,0.6c-0.6-0.1-1.2-0.2-1.8-0.4c0.3-0.8,0.5-1.7,0.8-2.5
		C59,14.3,59.9,12.9,60.9,11.5z M58.3,2.5c0.9,0.7,1.1,1.2,0.9,2.9c-0.2,1.3-0.7,2.7-1,4c-0.5,1.9-1,3.7-1.6,5.6
		c-0.5,0.7-0.9,1.5-1.4,2.3C55,17.4,55,17.6,55,17.8c-0.1,0-0.2,0-0.3-0.1c0.2-0.9,0.6-1.9,0.7-2.3c0.3-1.6,0.7-3.1,1-4.7L58.3,2.5z
		 M49.3,2.7c2.4,0,4.7,0,7.1,0c-0.8,3.6-1.6,7.3-2.4,10.9c-0.2,0.9-0.8,2.4-1.1,3.7c-1.7-0.4-3.4-0.8-5.1-1.2
		C48.8,11.7,49.2,7.2,49.3,2.7z M38.4,16.1c0.2-0.2,0.3-0.4,0.3-0.6c2.4,0.7,4.8,1.3,7.3,1.9c0.1,0.8,1.2,1.1,1.6,0.4
		c1.8,0.4,3.5,0.8,5.3,1.2c0,0.4,0.1,0.8,0.3,1.1c0.2,0.4,0.8,0.6,1.2,0.3c0.1,0,0.1-0.1,0.2-0.1c0.3-0.2,0.4-0.5,0.4-0.8
		c2,0.4,3.9,0.8,5.9,1.2c2.1,0.4,8.8,0.5,9,2.6c0,0.6-1.3,2.6-1.4,3.3c0,0.4,0,0.8,0,1.1c-11.4-2.3-22.9-4.2-34.4-5.9
		c-0.1,0-0.2,0-0.4,0C35,19.7,36.5,17.8,38.4,16.1z M75,87.7c-17.6-6.9-36.7-5.7-55.2-8.3c-4.3-0.6-8.9-1.3-13-2.7
		C0.3,74.4,2,64.5,2.4,59C3.1,49.4,5,39.9,8,30.7c0.4,0.2,1,0,1.2-0.5c0.7-2,0-3.9,0.6-5.8c1.3-5,7.3-3,10.7-2.6
		c3.6,0.4,7.2,0.9,10.8,1.4c0.1,0.7,1.2,1.2,1.6,0.4c0,0,0-0.1,0.1-0.1c3.3,0.5,6.7,1,10,1.5c8.7,1.4,17.4,3,26.1,4.7
		c0.2,0.4,0.8,0.5,1.2,0.2c4.2,0.8,8.4,1.7,12.6,2.6C78.6,50.7,76.1,69.1,75,87.7z"/>
	<path d="M39.2,62.6c-1.5-2.7-2.9-6-6.4-5.6c-3.4,0.4-5,2.9-8.8,1c-1.5-0.8-2.5-2.3-4.1-3c-1.8-0.7-3.6-0.2-4.3,1.2c0,0,0,0,0,0
		c-2.8,1.4-8.1,4.5-8.4,8c-0.4,3.6,4.5,3.4,7,4c5.9,1.3,11.8,2.8,17.8,3.9c2.3,0.4,7.7,2.2,9.5,0.2C43.5,70.2,40.3,64.5,39.2,62.6z
		 M38.9,71.3c-2.5,0.8-6.9-0.9-9.4-1.4c-3-0.7-6-1.3-9-2c-2.7-0.6-6.9-0.7-9.2-2.1c-4.3-2.4,1.2-6,4.2-7.6c0.4,0.8,1.8,0.7,1.6-0.3
		c-0.4-3,6.1,1.8,6.6,2c1.2,0.5,2.5,0.7,3.8,0.6c0.9-0.1,1.6-0.4,2.5-0.7c2.9-1,4.6-0.6,6.6,1.7C38.2,63.5,41.6,70.5,38.9,71.3z"/>
	<path d="M32.7,30.5c-5.9-1.5-9.2,3.8-10.8,8.8c-0.1,0.1-0.2,0.2-0.3,0.4c-2.2,5.6-1,12.9,5.5,14.8c6.4,1.9,10.8-4.3,11.6-9.9
		C39.4,39.6,38.6,32,32.7,30.5z M37.2,43c-0.3,4.4-2.6,10.2-8,10.1c-5.5-0.2-7.1-5.4-6.6-9.9c0.1-0.1,0.2-0.2,0.2-0.4
		c0.9-4.5,2.3-9.5,7.4-10.3C36.4,31.6,37.5,38.4,37.2,43z"/>
	<path d="M31.6,48.2c-1.8,1.8-3.7-1.2-4.4-2.5c-0.6-1-2.1-0.1-1.5,0.9c0.8,1.4,1.7,2.8,3.2,3.5c1.3,0.6,2.9,0.4,3.9-0.6
		C33.6,48.6,32.4,47.4,31.6,48.2z"/>
	<path d="M28,40c-1.1,0-1.1,1.7,0,1.7C29.1,41.8,29.1,40,28,40z"/>
	<path d="M32.3,41.8c-1.1,0-1.1,1.7,0,1.7C33.4,43.5,33.4,41.8,32.3,41.8z"/>
	<path d="M75.6,41.1c0-0.4-0.2-0.7-0.6-0.8c-8-2.6-16.3-4.8-24.7-6c-1.9-0.3-6.2,0.5-4.1,3c-1.3,4,2,4.4,6,5.3
		c3.3,0.7,6.6,1.3,10,1.7c4,0.4,8.1,0.3,11.9,1.8c0.4,0.2,0.9-0.2,1.1-0.6C75.7,43.9,75.8,42.8,75.6,41.1z M55.1,41.4
		c-1.9-0.4-8.6-0.6-7-4.2c0.1-0.3,0.1-0.5,0-0.7c1,0,3.6-0.2,4.2-0.1c1.1,0.1,2.2,0.4,3.2,0.6c2.4,0.5,4.8,1,7.2,1.6
		c2.1,0.5,4.2,1.1,6.3,1.7c2.7,0.8,5.2,0.9,4.7,3.9c-3.5-1.2-7-1.1-10.7-1.5C60.4,42.4,57.7,41.9,55.1,41.4z"/>
	<path d="M73.5,52.3c-8.5-3.5-17.3-5.7-26.4-6.7c-0.3,0-0.6,0.1-0.7,0.3c-2.9,0.2-2.5,3.9-0.2,5.3c3.1,1.8,7.5,2.2,10.9,3.1L71,58
		c0.6,0.2,1.1-0.3,1.1-0.8c0-1.2,0.1-2.4,0.1-3.5c0.3,0.1,0.5,0.2,0.8,0.3C74.1,54.4,74.6,52.7,73.5,52.3z M70.5,53c0,1-0.1,2-0.1,3
		c-4-1.1-8-2.2-12-3.2c-2.2-0.6-4.4-1.2-6.5-1.8c-1.1-0.3-2.2-0.6-3.3-0.9c-1.3-0.1-1.9-1-1.7-2.6c0.3,0,0.5-0.1,0.6-0.3
		C55.5,48.3,63.1,50.1,70.5,53C70.6,53,70.5,53,70.5,53z"/>
	<path d="M66.1,63.2c-0.1,0-0.2,0-0.3-0.1c-0.1-0.6-0.7-1.1-1.3-0.7c-0.1,0.1-0.2,0.2-0.3,0.3c-6-1.4-12.1-2.8-18.1-4.1
		c-0.3-0.1-0.5,0-0.7,0.2c-0.5-0.2-1.3,0-1.3,0.7c0,1.3,0,2.5,0,3.8c0,0.4,0.3,0.7,0.6,0.8c6.6,1.9,13.3,3.2,20.2,4
		c1,0.1,1.1-1.2,0.3-1.6c0.1-0.4,0.1-0.8,0.2-1.2c0.2-0.1,0.3-0.3,0.3-0.5C66.7,65,67.1,63.4,66.1,63.2z M48,63.3
		c-2-0.8-2.2-1.2-2.2-2.9c6,1.3,11.9,2.6,17.8,4c0,0.2,0.1,0.3,0.1,0.5c-0.1,0.5-0.2,1-0.2,1.4c0,0,0,0,0,0c-3.6-0.5-7.1-1-10.6-1.8
		C51.3,64.1,49.5,63.9,48,63.3z"/>
</g>
</svg>
