<?xml version="1.0" encoding="utf-8"?>
<!-- Generator: Adobe Illustrator 27.5.0, SVG Export Plug-In . SVG Version: 6.00 Build 0)  -->
<svg version="1.1" id="Livello_1" xmlns="http://www.w3.org/2000/svg" xmlns:xlink="http://www.w3.org/1999/xlink" x="0px" y="0px"
	 viewBox="0 0 240 240" style="enable-background:new 0 0 240 240;" xml:space="preserve">
<style type="text/css">
	.st0{fill:#B84C46;}
	.st1{fill:#FFFFFF;}
</style>
<g>
	<path class="st0" d="M194.1,240H45.9C20.5,240,0,219.5,0,194.1V45.9C0,20.5,20.5,0,45.9,0h148.3C219.5,0,240,20.5,240,45.9v148.3
		C240,219.5,219.5,240,194.1,240z"/>
	<g>
		<path class="st1" d="M59.4,78.5h-11V19.2h21.5c6,0,10.6,1.6,13.8,5c3.2,3.3,4.7,7.7,4.7,13.1c0,5.4-1.6,9.8-4.7,13.1
			c-3.2,3.3-7.8,5-13.8,5H59.4V78.5z M75.3,31.4c-1.4-1.3-3.3-1.9-5.8-1.9H59.4v15.7h10.1c2.5,0,4.4-0.6,5.8-1.9
			c1.4-1.3,2-3.3,2-5.9C77.3,34.6,76.6,32.7,75.3,31.4z"/>
		<path class="st1" d="M138.8,65.5c-2,4.5-4.7,8-8.2,10.2c-3.5,2.3-7.4,3.4-11.8,3.4c-4.4,0-8.3-1.1-11.8-3.4s-6.2-5.7-8.2-10.2
			c-2-4.5-3-10.1-3-16.6s1-12.1,3-16.6c2-4.5,4.7-8,8.2-10.2s7.4-3.4,11.8-3.4c4.4,0,8.3,1.1,11.8,3.4c3.5,2.3,6.2,5.7,8.2,10.2
			c2,4.5,3,10.1,3,16.6S140.8,61,138.8,65.5z M110.1,64.2c2.2,3.2,5.1,4.8,8.7,4.8c3.6,0,6.4-1.6,8.7-4.8c2.2-3.2,3.3-8.3,3.3-15.3
			s-1.1-12.1-3.3-15.3s-5.1-4.8-8.7-4.8c-3.6,0-6.4,1.6-8.7,4.8c-2.2,3.2-3.3,8.3-3.3,15.3S107.9,61,110.1,64.2z"/>
		<path class="st1" d="M195.9,78.5h-12.3l-15.9-25.6H162v25.6h-11V19.2h21.6c5.8,0,10.2,1.5,13.3,4.6c3.1,3.1,4.7,7.2,4.7,12.2
			c0,3.9-1,7.3-2.9,10.1c-1.9,2.8-4.7,4.7-8.2,5.8L195.9,78.5z M177.7,31c-1.2-1.1-2.9-1.6-5.1-1.6H162v13.4h10.7
			c2.1,0,3.8-0.5,5.1-1.6c1.2-1.1,1.9-2.8,1.9-5.1S178.9,32.1,177.7,31z"/>
		<path class="st1" d="M88.5,90.4v10.2H71.8v49.1h-11v-49.1H44.1V90.4H88.5z"/>
		<path class="st1" d="M137.2,101.4h-26v12.3h21.8v10.2h-21.8v25.8h-11V90.4h37V101.4z"/>
		<path class="st1" d="M191.3,136.6c-2,4.5-4.7,8-8.2,10.2c-3.5,2.3-7.4,3.4-11.8,3.4c-4.4,0-8.3-1.1-11.8-3.4
			c-3.5-2.3-6.2-5.7-8.2-10.2c-2-4.5-3-10.1-3-16.6s1-12.1,3-16.6c2-4.5,4.7-8,8.2-10.2s7.4-3.4,11.8-3.4c4.4,0,8.3,1.1,11.8,3.4
			s6.2,5.7,8.2,10.2c2,4.5,3,10.1,3,16.6S193.3,132.1,191.3,136.6z M162.6,135.3c2.2,3.2,5.1,4.8,8.7,4.8c3.6,0,6.4-1.6,8.7-4.8
			s3.3-8.3,3.3-15.3s-1.1-12.1-3.3-15.3c-2.2-3.2-5.1-4.8-8.7-4.8c-3.6,0-6.4,1.6-8.7,4.8c-2.2,3.2-3.3,8.3-3.3,15.3
			S160.4,132.1,162.6,135.3z"/>
		<path class="st1" d="M51.3,161.5h11v49.1H89v10.2H51.3V161.5z"/>
		<path class="st1" d="M100.7,210.6h12.5v-38.9h-12.5v-10.2h36.1v10.2h-12.5v38.9h12.5v10.2h-36.1V210.6z"/>
		<path class="st1" d="M191.3,207.8c-2,4.5-4.7,8-8.2,10.2s-7.4,3.4-11.8,3.4c-4.4,0-8.3-1.1-11.8-3.4s-6.2-5.7-8.2-10.2
			c-2-4.5-3-10.1-3-16.6c0-6.5,1-12.1,3-16.6c2-4.5,4.7-8,8.2-10.2c3.5-2.3,7.4-3.4,11.8-3.4c4.4,0,8.3,1.1,11.8,3.4
			c3.5,2.3,6.2,5.7,8.2,10.2c2,4.5,3,10.1,3,16.6C194.3,197.7,193.3,203.2,191.3,207.8z M162.6,206.4c2.2,3.2,5.1,4.8,8.7,4.8
			c3.6,0,6.4-1.6,8.7-4.8s3.3-8.3,3.3-15.3s-1.1-12.1-3.3-15.3s-5.1-4.8-8.7-4.8c-3.6,0-6.4,1.6-8.7,4.8c-2.2,3.2-3.3,8.3-3.3,15.3
			S160.4,203.2,162.6,206.4z"/>
	</g>
</g>
</svg>
